<svg
  xmlns="http://www.w3.org/2000/svg" viewBox="0 0 1208.89 198">
  <defs>
    <style>.cls-1{fill:none;stroke:#fff;}</style>
  </defs>
  <g id="Ebene_2" data-name="Ebene 2">
    <g id="Ebene_1-2" data-name="Ebene 1">
      <path class="cls-1" d="M213.89,195H155.51L138,115.38q-1.24-5-3.93-19.88t-3.94-24.88q-1,8.13-3.25,20.19T122.45,113q-2.19,10.13-18.19,82H45.89L.64,12.25H48.26l19.88,91.63q6.75,30.36,9.25,48.37Q79,139.5,83.2,117.62T91,81.38l16.13-69.13h45.75l15.62,69.13q4,16.62,8.13,38.37t5.5,32.5q1.62-13.87,8.87-48.13l20.25-91.87h47.63Z"/>
      <path class="cls-1" d="M348,197.5q-35.37,0-54.93-18.81t-19.57-53.57q0-35.87,18.13-55.06t51.75-19.18q32,0,49.44,16.68t17.43,48.06v21.76H322.89q.5,11.87,8.69,18.62t22.31,6.75a107.49,107.49,0,0,0,23.69-2.44A116.78,116.78,0,0,0,401,152v35.12a86,86,0,0,1-23.75,8.13A164.24,164.24,0,0,1,348,197.5ZM345.14,84.12a20.36,20.36,0,0,0-14.44,5.44q-5.81,5.44-6.81,17.06h42q-.25-10.25-5.81-16.37T345.14,84.12Z"/>
      <path class="cls-1" d="M486.76,195H437.89V.5h48.87Z"/>
      <path class="cls-1" d="M585.14,197.5q-34.75,0-52.69-18.75t-17.94-53.87q0-35.25,19.38-54.63T589,50.88a103.36,103.36,0,0,1,46.38,10.74L621,97.75a158.83,158.83,0,0,0-16.37-6.19A52.8,52.8,0,0,0,589,89.25q-11.87,0-18.37,9.25t-6.5,26.12q0,34,25.12,34,21.51,0,41.25-12.5V185Q611.64,197.5,585.14,197.5Z"/>
      <path class="cls-1" d="M793.89,123.88q0,34.74-18.69,54.18T722.89,197.5q-32.25,0-51.31-19.88t-19.07-53.74q0-34.63,18.69-53.82t52.44-19.18q20.86,0,36.87,8.87A60.6,60.6,0,0,1,785.2,85.19Q793.89,101.75,793.89,123.88Zm-91.75,0q0,18.24,4.87,27.81t16.38,9.56q11.37,0,16.06-9.56t4.69-27.81q0-18.13-4.75-27.38t-16.25-9.25q-11.25,0-16.13,9.19T702.14,123.88Z"/>
      <path class="cls-1" d="M995.64,195V118q0-14.37-3.94-21.56t-12.44-7.19q-11.25,0-16.5,9.63T957.51,129v66h-49V118q0-14.37-3.75-21.56t-12.12-7.19q-11.5,0-16.75,10.25T870.64,133v62H821.76V53.38h36.88l6.12,17.5h2.88A36.58,36.58,0,0,1,884,56a55.52,55.52,0,0,1,24.31-5.12q30.63,0,43,18.62h3.88a40.12,40.12,0,0,1,16.69-13.69,55.47,55.47,0,0,1,23.56-4.93q25.13,0,37.12,12.87t12,39.13V195Z"/>
      <path class="cls-1" d="M1146.14,197.5q-35.39,0-54.94-18.81t-19.56-53.57q0-35.87,18.12-55.06t51.75-19.18q32,0,49.44,16.68t17.44,48.06v21.76H1121q.51,11.87,8.69,18.62t22.31,6.75a107.42,107.42,0,0,0,23.69-2.44,116.85,116.85,0,0,0,23.44-8.31v35.12a86.25,86.25,0,0,1-23.75,8.13A164.4,164.4,0,0,1,1146.14,197.5Zm-2.88-113.38a20.32,20.32,0,0,0-14.43,5.44Q1123,95,1122,106.62h42q-.24-10.25-5.81-16.37T1143.26,84.12Z"/>
    </g>
  </g>
</svg>