<svg xmlns="http://www.w3.org/2000/svg" width="85.486" height="54.862" viewBox="0 0 85.486 54.862">
  <path id="pizza" d="M82.858,13.632H78.707c0-.04.006-.081.006-.122V3.129A2.632,2.632,0,0,0,76.084.5H26.015a1.254,1.254,0,0,0,0,2.507h9.325L37.578,6.74a2.658,2.658,0,0,0,2.3,1.229H52.751a2.66,2.66,0,0,0,2.3-1.229l2.238-3.733h18.8a.122.122,0,0,1,.123.122v10.38a.122.122,0,0,1-.123.123H16.541a.123.123,0,0,1-.123-.122V3.129a.123.123,0,0,1,.123-.122h3.931a1.254,1.254,0,1,0,0-2.507H16.541a2.632,2.632,0,0,0-2.629,2.629V13.51a2.632,2.632,0,0,0,2.629,2.629h4.151c0,.04-.006.081-.006.122V26.641c0,.085,0,.17.012.253a2.633,2.633,0,0,0-2.077,2.57v4.69a1.87,1.87,0,0,0-.723-.147H15.233a1.923,1.923,0,0,0-1.882-1.542H1.919A1.922,1.922,0,0,0,0,34.386v2.195a1.254,1.254,0,1,0,2.507,0V34.973H12.764V51.418H2.507v-9.1A1.254,1.254,0,0,0,0,42.32v9.685a1.921,1.921,0,0,0,1.919,1.919H13.351a1.923,1.923,0,0,0,1.882-1.542H17.9a1.887,1.887,0,0,0,1.43-.657c2.426,1.278,7.037,2.86,15.547,3.583q.626.053,1.254.053a14.828,14.828,0,0,0,5.239-.951c6.865-2.6,12.689-7.959,15.551-10.921a4.76,4.76,0,0,0,.749-1.015H80.792a2.633,2.633,0,0,0,2.63-2.63V29.465c0-.085-.005-.17-.013-.254a2.633,2.633,0,0,0,2.077-2.57V16.261A2.631,2.631,0,0,0,82.858,13.632ZM52.911,5.426a.335.335,0,0,1-.16.037H39.873a.335.335,0,0,1-.16-.037l-1.45-2.419h16.1ZM17.281,49.76v.115h-2.01V36.515h2.01ZM61.136,16.139l-1.451,2.418a.328.328,0,0,1-.16.037H46.647a.33.33,0,0,1-.16-.037l-1.45-2.418Zm-6.021,25.61C52.4,44.56,46.886,49.638,40.478,52.067a12.356,12.356,0,0,1-5.392.744c-7.025-.6-12.533-1.936-15.3-3.705v-11.8h.881a21.626,21.626,0,0,0,6.1-.879l10.371-3.05a1.612,1.612,0,0,1,1.23,2.959l-2.36,1.3A1.841,1.841,0,0,0,36.348,41l2.647.83a7.343,7.343,0,0,0,4.9-.183l8.807-3.5a2.218,2.218,0,0,1,2.414,3.6Zm25.8-1.9a.123.123,0,0,1-.123.123H58.242a4.713,4.713,0,0,0-1.1-2.8h0a4.717,4.717,0,0,0-5.368-1.355l-8.807,3.5a4.833,4.833,0,0,1-3.221.121l-1.156-.363.991-.543a4.119,4.119,0,0,0-3.144-7.562L26.066,34.022a19.087,19.087,0,0,1-4.939.769V29.465a.122.122,0,0,1,.123-.122h18.8l2.238,3.733a2.659,2.659,0,0,0,2.3,1.229H57.46a2.658,2.658,0,0,0,2.3-1.229l2.238-3.733h18.8a.122.122,0,0,1,.123.122v10.38Zm-37.944-10.5h16.1L57.62,31.761a.328.328,0,0,1-.16.037H44.582a.33.33,0,0,1-.16-.037Zm40.008-2.7a.122.122,0,0,1-.122.122H23.315a.122.122,0,0,1-.123-.122V16.261a.123.123,0,0,1,.123-.123h18.8l2.238,3.733a2.66,2.66,0,0,0,2.3,1.229H59.525a2.66,2.66,0,0,0,2.3-1.229l2.238-3.733h18.8a.122.122,0,0,1,.123.122Zm0,0" transform="translate(0 -0.5)" fill="#193f43"/>
</svg>
