<svg xmlns="http://www.w3.org/2000/svg" width="79.36" height="79.36" viewBox="0 0 79.36 79.36">
  <g id="dashboard" transform="translate(-1 -1)">
    <path id="Pfad_4740" data-name="Pfad 4740" d="M72.68,43.919v-25.1A8.955,8.955,0,1,0,62.44,9.96H1v51.2H39.465A20.467,20.467,0,1,0,72.68,43.919ZM71.4,3.56A6.4,6.4,0,1,1,65,9.96,6.407,6.407,0,0,1,71.4,3.56ZM3.56,12.52H62.818a8.954,8.954,0,0,0,1.417,2.8l-7.829,7.829a3.706,3.706,0,0,0-3.291,0l-2.579-2.579a3.8,3.8,0,0,0,.384-1.646,3.84,3.84,0,0,0-7.68,0,3.777,3.777,0,0,0,.385,1.645l-6.419,6.419A3.8,3.8,0,0,0,35.56,26.6a3.84,3.84,0,1,0,3.84,3.84,3.777,3.777,0,0,0-.385-1.645l6.419-6.419a3.712,3.712,0,0,0,3.291,0L51.3,24.954A3.8,3.8,0,0,0,50.92,26.6a3.84,3.84,0,1,0,7.68,0,3.777,3.777,0,0,0-.385-1.645l7.83-7.829a8.9,8.9,0,0,0,4.076,1.692V42.173a20.356,20.356,0,0,0-25.6,4.207v-5.7H36.84V56.04h2.934a20.533,20.533,0,0,0-.308,2.56H3.56Zm51.2,12.8a1.28,1.28,0,1,1-1.28,1.28A1.281,1.281,0,0,1,54.76,25.32Zm-8.96-6.4a1.28,1.28,0,1,1,1.28,1.28A1.281,1.281,0,0,1,45.8,18.92ZM36.84,30.44a1.28,1.28,0,1,1-1.28-1.28A1.281,1.281,0,0,1,36.84,30.44ZM59.88,70.12A10.24,10.24,0,1,1,70.12,59.88,10.252,10.252,0,0,1,59.88,70.12ZM41.96,49.987a20.325,20.325,0,0,0-1.522,3.493H39.4V43.24h2.56ZM58.6,42.025v5.12a12.774,12.774,0,0,0-10.38,17.988L43.78,67.7A17.859,17.859,0,0,1,58.6,42.025ZM59.88,77.8a17.911,17.911,0,0,1-14.833-7.878l4.458-2.574a12.758,12.758,0,0,0,20.749,0l4.458,2.574A17.911,17.911,0,0,1,59.88,77.8Zm16.1-10.1-4.44-2.564A12.774,12.774,0,0,0,61.16,47.145v-5.12A17.858,17.858,0,0,1,75.98,67.7Z" transform="translate(0 0)" fill="#193f43"/>
    <path id="Pfad_4741" data-name="Pfad 4741" d="M48.68,41a7.68,7.68,0,1,0,7.68,7.68A7.688,7.688,0,0,0,48.68,41Zm0,12.8a5.12,5.12,0,1,1,5.12-5.12A5.125,5.125,0,0,1,48.68,53.8Z" transform="translate(11.2 11.2)" fill="#193f43"/>
    <path id="Pfad_4742" data-name="Pfad 4742" d="M5,12H7.56v2.56H5Z" transform="translate(1.12 3.08)" fill="#193f43"/>
    <path id="Pfad_4743" data-name="Pfad 4743" d="M9,12H26.92v2.56H9Z" transform="translate(2.24 3.08)" fill="#193f43"/>
    <path id="Pfad_4744" data-name="Pfad 4744" d="M5,16H7.56v2.56H5Z" transform="translate(1.12 4.2)" fill="#193f43"/>
    <path id="Pfad_4745" data-name="Pfad 4745" d="M9,16H26.92v2.56H9Z" transform="translate(2.24 4.2)" fill="#193f43"/>
    <path id="Pfad_4746" data-name="Pfad 4746" d="M5,20H7.56v2.56H5Z" transform="translate(1.12 5.32)" fill="#193f43"/>
    <path id="Pfad_4747" data-name="Pfad 4747" d="M9,20H26.92v2.56H9Z" transform="translate(2.24 5.32)" fill="#193f43"/>
    <path id="Pfad_4748" data-name="Pfad 4748" d="M5,24H7.56v2.56H5Z" transform="translate(1.12 6.44)" fill="#193f43"/>
    <path id="Pfad_4749" data-name="Pfad 4749" d="M9,24H26.92v2.56H9Z" transform="translate(2.24 6.44)" fill="#193f43"/>
    <path id="Pfad_4750" data-name="Pfad 4750" d="M5,46.8h7.68V34H5ZM7.56,36.56h2.56v7.68H7.56Z" transform="translate(1.12 9.24)" fill="#193f43"/>
    <path id="Pfad_4751" data-name="Pfad 4751" d="M13,46.24h7.68V36H13Zm2.56-7.68h2.56v5.12H15.56Z" transform="translate(3.36 9.8)" fill="#193f43"/>
    <path id="Pfad_4752" data-name="Pfad 4752" d="M21,48.48h7.68V28H21Zm2.56-17.92h2.56V45.92H23.56Z" transform="translate(5.6 7.56)" fill="#193f43"/>
  </g>
</svg>
