<svg
  xmlns="http://www.w3.org/2000/svg"
  xmlns:xlink="http://www.w3.org/1999/xlink" width="108.4" height="108.399" viewBox="0 0 108.4 108.399">
  <defs>
    <linearGradient id="linear-gradient" x1="0.332" y1="0.141" x2="0.585" y2="0.682" gradientUnits="objectBoundingBox">
      <stop offset="0" stop-color="#464646"/>
      <stop offset="1" stop-color="#141414"/>
    </linearGradient>
  </defs>
  <g id="Gruppe_1210" data-name="Gruppe 1210" transform="translate(-5179 -2318)">
    <g id="_0c3d39c" data-name="0c3d39c" transform="translate(5179 2318)">
      <path id="Pfad_57" data-name="Pfad 57" d="M89.01,106.543a327.415,327.415,0,0,1-69.622,0A19.738,19.738,0,0,1,1.856,89.009a327.4,327.4,0,0,1,0-69.621A19.738,19.738,0,0,1,19.389,1.856a327.4,327.4,0,0,1,69.621,0,19.738,19.738,0,0,1,17.534,17.533,327.4,327.4,0,0,1,0,69.621A19.737,19.737,0,0,1,89.01,106.543Zm0,0" fill="url(#linear-gradient)"/>
      <g id="medium" transform="translate(5.106 5.106)">
        <path id="Pfad_4767" data-name="Pfad 4767" d="M73.341,97.788H24.447A24.448,24.448,0,0,1,0,73.342v-48.9A24.448,24.448,0,0,1,24.446,0h48.9A24.447,24.447,0,0,1,97.788,24.447V73.341A24.447,24.447,0,0,1,73.341,97.788" transform="translate(0 0)" fill="#2d2d2d" fill-rule="evenodd"/>
        <path id="Pfad_4768" data-name="Pfad 4768" d="M45.838,27.5h27.5A13.752,13.752,0,0,0,74.747.07C74.279.044,73.816,0,73.341,0H24.447A24.448,24.448,0,0,0,0,24.446v48.9A45.839,45.839,0,0,1,45.837,27.5" fill="#464646" fill-rule="evenodd"/>
        <path id="Pfad_4769" data-name="Pfad 4769" d="M56.447,40.447A24.447,24.447,0,1,0,80.894,64.894V16A24.447,24.447,0,0,1,56.447,40.447" transform="translate(16.894 8.447)" fill="#141414" fill-rule="evenodd" opacity="0.5"/>
        <path id="Pfad_4770" data-name="Pfad 4770" d="M44.673,48.7s8.579-23.575,11.171-30.692A3.054,3.054,0,0,1,58.714,16H68.9a1.528,1.528,0,0,1,1.08,2.608l-3.5,3.5V58.782l3.5,3.5a1.528,1.528,0,0,1-1.08,2.608H51.831a1.528,1.528,0,0,1-1.08-2.608l3.5-3.5V31.31L42.55,63.468a2.168,2.168,0,0,1-2.037,1.426h0a2.385,2.385,0,0,1-2.173-1.4L23.7,31.279V52.671s3.96,6.338,6.179,9.886a1.528,1.528,0,0,1-1.3,2.338H14.528a1.528,1.528,0,0,1-1.222-2.445l7.334-9.779v-27.5s-3.29-3.947-5.551-6.662A1.528,1.528,0,0,1,16.262,16H27.839a3.057,3.057,0,0,1,2.782,1.791Z" transform="translate(6.863 8.447)" fill="#fff" fill-rule="evenodd"/>
      </g>
    </g>
  </g>
</svg>
