<svg xmlns="http://www.w3.org/2000/svg" viewBox="0 0 319.4 319.74"><defs><style>.cls-1{fill:#fff;}</style></defs><g id="Ebene_2" data-name="Ebene 2"><g id="Ebene_1-2" data-name="Ebene 1"><rect class="cls-1" width="319.4" height="319.74"/><path d="M258.49,123.42v9.29a36.43,36.43,0,0,0-51.43,51.46H190V123.42H177.87l-8.1,12.15-4.05,6.08-4.05,6.07a2.43,2.43,0,0,1-4,0h0l-4.05-6.07-4-6.08-8.1-12.15H129.27v60.75h-16.9a36.46,36.46,0,1,0-54.32,0H48.76v12.15h24.3V180.91a24.3,24.3,0,1,1,24.3,0v15.41h31.91a12.15,12.15,0,0,0,12.15-12.15h0V144.64l4.05,6.08,8.1,12.15,4.09,5.78a2.42,2.42,0,0,0,4,0l4.09-5.78,8.1-12.15,4.05-6.08v39.53a12.13,12.13,0,0,0,1.46,5.79c.19.34.39.68.61,1a12.28,12.28,0,0,0,1.49,1.8,12,12,0,0,0,2.8,2.09,11,11,0,0,0,2.17.92,12.07,12.07,0,0,0,3.62.55h44.17a36.47,36.47,0,0,0,12.15-2.07,35.35,35.35,0,0,0,6.08-2.81v-15.5a24.34,24.34,0,0,1-6.08,5,24,24,0,0,1-12.15,3.26h0a24.3,24.3,0,1,1,21-36.45,24,24,0,0,1,3.26,12.15v36.45h12.15v-72.9Z"/></g></g></svg>