<svg xmlns="http://www.w3.org/2000/svg" viewBox="0 0 410.45 74.26"><g id="Ebene_2" data-name="Ebene 2"><g id="Ebene_1-2" data-name="Ebene 1"><path d="M209.73.75V10A36.43,36.43,0,0,0,158.31,61.5H141.26V.75H129.11L121,12.9,117,19l-4,6.07a2.43,2.43,0,0,1-4,0h0l-4-6.07-4-6.08L92.66.75H80.51V61.5H63.61A36.44,36.44,0,1,0,2.08,49.35,36.24,36.24,0,0,0,9.29,61.5H0V73.65H24.3V58.24A24.3,24.3,0,0,1,38.14,13,24.4,24.4,0,0,1,60.68,35.37,24.3,24.3,0,0,1,48.6,58.24V73.65H80.51A12.15,12.15,0,0,0,92.66,61.5h0V22l4,6.08,8.1,12.15L108.9,46a2.43,2.43,0,0,0,4,0L117,40.2l8.1-12.15L129.11,22V61.5a12,12,0,0,0,1.47,5.79c.18.35.39.68.6,1a12.75,12.75,0,0,0,1.49,1.79,11.8,11.8,0,0,0,2.8,2.1,12.4,12.4,0,0,0,2.18.92,12.27,12.27,0,0,0,3.61.54h44.17a36.22,36.22,0,0,0,12.15-2.07,35.35,35.35,0,0,0,6.08-2.81V53.26a24.34,24.34,0,0,1-6.08,5,24,24,0,0,1-12.15,3.26h0a24.3,24.3,0,1,1,21-36.45,24,24,0,0,1,3.26,12.15V73.65h12.15V.75Z"/><path d="M239.87,17.26c-5,0-9-3.58-9-8.64s4-8.62,9-8.62,9,3.55,9,8.62A8.61,8.61,0,0,1,239.87,17.26Zm0-3.75c2.8,0,4.62-1.94,4.62-4.89s-1.82-4.9-4.62-4.9-4.64,1.9-4.64,4.9S237,13.51,239.87,13.51Z"/><path d="M266.88.24V17.09h-4.27L255.47,6.7V17.09H251.2V.24h4.27l7.14,10.44V.24Z"/><path d="M274.24.24V13.92h5.59v3.17H270V.24Z"/><path d="M281.88.24h4.27V17.09h-4.27Z"/><path d="M304.92.24V17.09h-4.27L293.51,6.7V17.09h-4.27V.24h4.27l7.14,10.44V.24Z"/><path d="M318.75,3.53h-6.47V6.94H318v3.17h-5.72V13.8h6.47v3.29H308V.24h10.74Z"/><path d="M231.58,28.24h5l4.91,11.67,4.87-11.67h5V45.09h-4.27V35l-3.92,10.1H239.8l-4-10.13V45.09h-4.27Z"/><path d="M265.41,42.11h-6.54l-1.05,3h-4.47l6.34-16.85h4.94L271,45.09h-4.51Zm-3.27-9.33L260,39h4.32Z"/><path d="M280.06,28.24c4.29,0,6.44,2.38,6.44,5.3a4.94,4.94,0,0,1-3.9,4.88l4,6.67h-4.82l-3.65-6.36h-1v6.36h-4.27V28.24Zm-.25,3.41h-2.65v4.18h2.65c1.6,0,2.34-.8,2.34-2.12S281.41,31.65,279.81,31.65Z"/><path d="M293.44,37.65v7.44h-4.27V28.24h4.27v7.39l5.84-7.39h5L297.5,36.5l7,8.59h-5.21Z"/><path d="M317.3,31.53h-6.47v3.41h5.72v3.17h-5.72V41.8h6.47v3.29H306.56V28.24H317.3Z"/><path d="M319.12,28.24h13.55v3.29H328V45.09h-4.27V31.53h-4.64Z"/><path d="M341.73,39h-2.64v6.05h-4.27V28.24h6.91c4.3,0,6.44,2.33,6.44,5.43C348.17,36.45,346.2,39,341.73,39Zm-.32-3.26c1.7,0,2.42-.82,2.42-2.11s-.72-2.12-2.42-2.12h-2.32v4.23Z"/><path d="M354.66,28.24V41.92h5.59v3.17h-9.86V28.24Z"/><path d="M373.21,42.11h-6.54l-1.05,3h-4.47l6.34-16.85h4.94l6.34,16.85h-4.51Zm-3.27-9.33L367.79,39h4.32Z"/><path d="M388.78,28.05c4.17,0,7.32,2.25,8.31,5.9H392.4a3.88,3.88,0,0,0-3.67-2.16c-2.62,0-4.42,1.88-4.42,4.85s1.8,4.85,4.42,4.85a3.88,3.88,0,0,0,3.67-2.16h4.69c-1,3.65-4.14,5.88-8.31,5.88-5.17,0-8.81-3.53-8.81-8.57S383.61,28.05,388.78,28.05Z"/><path d="M410.45,31.53H404v3.41h5.72v3.17H404V41.8h6.47v3.29H399.71V28.24h10.74Z"/><path d="M242.49,71.11H236l-1,3h-4.46l6.34-16.85h4.94l6.34,16.85h-4.52Zm-3.27-9.33L237.08,68h4.31Z"/><path d="M256.89,68h-2.64v6H250V57.24h6.91c4.3,0,6.44,2.33,6.44,5.43C263.33,65.45,261.36,68,256.89,68Zm-.32-3.26c1.7,0,2.42-.82,2.42-2.11s-.72-2.12-2.42-2.12h-2.32v4.23Z"/><path d="M272.47,68h-2.65v6h-4.27V57.24h6.92c4.29,0,6.44,2.33,6.44,5.43C278.91,65.45,276.94,68,272.47,68Zm-.33-3.26c1.7,0,2.43-.82,2.43-2.11s-.73-2.12-2.43-2.12h-2.32v4.23Z"/><path d="M285.4,57.24V70.92H291v3.17h-9.86V57.24Z"/><path d="M293,57.24h4.26V74.09H293Z"/><path d="M308.49,57.05c4.17,0,7.31,2.25,8.31,5.9h-4.69a3.89,3.89,0,0,0-3.67-2.16c-2.62,0-4.42,1.88-4.42,4.85s1.8,4.85,4.42,4.85a3.89,3.89,0,0,0,3.67-2.16h4.69c-1,3.65-4.14,5.88-8.31,5.88-5.17,0-8.82-3.53-8.82-8.57S303.32,57.05,308.49,57.05Z"/><path d="M330.33,71.11h-6.54l-1.05,3h-4.47l6.34-16.85h4.94l6.34,16.85h-4.51Zm-3.27-9.33L324.91,68h4.32Z"/><path d="M336.86,57.24h13.56v3.29h-4.64V74.09h-4.27V60.53h-4.65Z"/><path d="M352.56,57.24h4.27V74.09h-4.27Z"/><path d="M368.21,74.26c-5,0-9-3.58-9-8.64s4.05-8.62,9-8.62,9,3.55,9,8.62A8.62,8.62,0,0,1,368.21,74.26Zm0-3.75c2.8,0,4.62-1.94,4.62-4.89s-1.82-4.9-4.62-4.9-4.64,1.9-4.64,4.9S365.37,70.51,368.21,70.51Z"/><path d="M395.22,57.24V74.09H391L383.81,63.7V74.09h-4.26V57.24h4.26L391,67.68V57.24Z"/></g></g></svg>