<svg xmlns="http://www.w3.org/2000/svg" width="92.27" height="83" viewBox="0 0 92.27 83">
  <g id="speech-bubble" transform="translate(0.5 0.5)">
    <path id="Pfad_4729" data-name="Pfad 4729" d="M247.783,100a1.783,1.783,0,1,0,1.783,1.783A1.783,1.783,0,0,0,247.783,100Zm0,0" transform="translate(-202.148 -82.174)" fill="#193f43" stroke="#fff" stroke-width="1"/>
    <path id="Pfad_4730" data-name="Pfad 4730" d="M81.783,263.565A1.783,1.783,0,1,0,80,261.783,1.783,1.783,0,0,0,81.783,263.565Zm0,0" transform="translate(-65.739 -213.652)" fill="#193f43" stroke="#fff" stroke-width="1"/>
    <path id="Pfad_4731" data-name="Pfad 4731" d="M59.9,0C43.847,0,30.675,11.065,29.657,25,14.373,25.768,0,36.789,0,51.7A24.909,24.909,0,0,0,6.952,68.743,10.841,10.841,0,0,1,4.087,78.957,1.782,1.782,0,0,0,5.348,82a19.664,19.664,0,0,0,13.624-5.507,40.622,40.622,0,0,0,12.4,1.941c16.046,0,29.217-11.062,30.238-25a40.085,40.085,0,0,0,10.686-1.9,19.663,19.663,0,0,0,13.624,5.507A1.782,1.782,0,0,0,87.182,54a10.841,10.841,0,0,1-2.865-10.214A24.909,24.909,0,0,0,91.27,26.739C91.27,11.251,75.789,0,59.9,0ZM31.374,74.87a36.036,36.036,0,0,1-12.213-2.1,1.783,1.783,0,0,0-1.975.453,16.084,16.084,0,0,1-8,4.748,14.416,14.416,0,0,0,1.087-10.61,1.779,1.779,0,0,0-.436-.753A21.422,21.422,0,0,1,3.565,51.7c0-12.562,12.735-23.174,27.809-23.174,14.234,0,26.739,9.9,26.739,23.174C58.113,64.474,46.118,74.87,31.374,74.87ZM81.432,41.646A1.787,1.787,0,0,0,81,42.4a14.416,14.416,0,0,0,1.087,10.61,16.079,16.079,0,0,1-8-4.748,1.784,1.784,0,0,0-1.975-.453,35.116,35.116,0,0,1-10.5,2.059,25.516,25.516,0,0,0-9.632-17.782H75.226a1.783,1.783,0,0,0,0-3.565H46.5a33.246,33.246,0,0,0-13.267-3.513C34.255,13.036,45.823,3.565,59.9,3.565,74.97,3.565,87.7,14.177,87.7,26.739A21.422,21.422,0,0,1,81.432,41.646Zm0,0" fill="#193f43" stroke="#fff" stroke-width="1"/>
    <path id="Pfad_4732" data-name="Pfad 4732" d="M144.243,260H121.783a1.783,1.783,0,1,0,0,3.565h22.461a1.783,1.783,0,1,0,0-3.565Zm0,0" transform="translate(-98.609 -213.652)" fill="#193f43" stroke="#fff" stroke-width="1"/>
    <path id="Pfad_4733" data-name="Pfad 4733" d="M111.374,320H81.783a1.783,1.783,0,1,0,0,3.565h29.591a1.783,1.783,0,1,0,0-3.565Zm0,0" transform="translate(-65.739 -262.957)" fill="#193f43" stroke="#fff" stroke-width="1"/>
    <path id="Pfad_4734" data-name="Pfad 4734" d="M310.243,100H287.783a1.783,1.783,0,0,0,0,3.565h22.461a1.783,1.783,0,0,0,0-3.565Zm0,0" transform="translate(-235.017 -82.174)" fill="#193f43" stroke="#fff" stroke-width="1"/>
  </g>
</svg>
