<svg xmlns="http://www.w3.org/2000/svg" width="78" height="44.2" viewBox="0 0 78 44.2">
  <g id="coupon" transform="translate(0 -104)">
    <g id="Gruppe_1181" data-name="Gruppe 1181" transform="translate(23.636 129.645)">
      <g id="Gruppe_1180" data-name="Gruppe 1180" transform="translate(0 0)">
        <rect id="Rechteck_79" data-name="Rechteck 79" width="2" height="3" transform="translate(0.364 0.454)" fill="#193f43"/>
      </g>
    </g>
    <g id="Gruppe_1183" data-name="Gruppe 1183" transform="translate(23.636 135.555)">
      <g id="Gruppe_1182" data-name="Gruppe 1182" transform="translate(0 0)">
        <rect id="Rechteck_80" data-name="Rechteck 80" width="2" height="3" transform="translate(0.364 -0.455)" fill="#193f43"/>
      </g>
    </g>
    <g id="Gruppe_1185" data-name="Gruppe 1185" transform="translate(23.636 140.282)">
      <g id="Gruppe_1184" data-name="Gruppe 1184" transform="translate(0 0)">
        <rect id="Rechteck_81" data-name="Rechteck 81" width="2" height="3" transform="translate(0.364 -0.182)" fill="#193f43"/>
      </g>
    </g>
    <g id="Gruppe_1187" data-name="Gruppe 1187" transform="translate(23.636 124.918)">
      <g id="Gruppe_1186" data-name="Gruppe 1186" transform="translate(0 0)">
        <rect id="Rechteck_82" data-name="Rechteck 82" width="2" height="2" transform="translate(0.364 0.182)" fill="#193f43"/>
      </g>
    </g>
    <g id="Gruppe_1189" data-name="Gruppe 1189" transform="translate(23.636 119.009)">
      <g id="Gruppe_1188" data-name="Gruppe 1188" transform="translate(0 0)">
        <rect id="Rechteck_83" data-name="Rechteck 83" width="2" height="3" transform="translate(0.364 0.091)" fill="#193f43"/>
      </g>
    </g>
    <g id="Gruppe_1191" data-name="Gruppe 1191" transform="translate(23.636 114.282)">
      <g id="Gruppe_1190" data-name="Gruppe 1190" transform="translate(0 0)">
        <rect id="Rechteck_84" data-name="Rechteck 84" width="2" height="3" transform="translate(0.364 -0.182)" fill="#193f43"/>
      </g>
    </g>
    <g id="Gruppe_1193" data-name="Gruppe 1193" transform="translate(23.636 109.555)">
      <g id="Gruppe_1192" data-name="Gruppe 1192" transform="translate(0 0)">
        <rect id="Rechteck_85" data-name="Rechteck 85" width="2" height="3" transform="translate(0.364 -0.455)" fill="#193f43"/>
      </g>
    </g>
    <g id="Gruppe_1195" data-name="Gruppe 1195" transform="translate(4.727 109.555)">
      <g id="Gruppe_1194" data-name="Gruppe 1194" transform="translate(0 0)">
        <rect id="Rechteck_86" data-name="Rechteck 86" width="3" height="3" transform="translate(0.273 -0.455)" fill="#193f43"/>
      </g>
    </g>
    <g id="Gruppe_1197" data-name="Gruppe 1197" transform="translate(69.727 109.555)">
      <g id="Gruppe_1196" data-name="Gruppe 1196" transform="translate(0 0)">
        <rect id="Rechteck_87" data-name="Rechteck 87" width="3" height="3" transform="translate(0.273 -0.455)" fill="#193f43"/>
      </g>
    </g>
    <g id="Gruppe_1199" data-name="Gruppe 1199" transform="translate(69.727 140.282)">
      <g id="Gruppe_1198" data-name="Gruppe 1198" transform="translate(0 0)">
        <rect id="Rechteck_88" data-name="Rechteck 88" width="3" height="3" transform="translate(0.273 -0.182)" fill="#193f43"/>
      </g>
    </g>
    <g id="Gruppe_1201" data-name="Gruppe 1201" transform="translate(4.727 140.282)">
      <g id="Gruppe_1200" data-name="Gruppe 1200" transform="translate(0 0)">
        <rect id="Rechteck_89" data-name="Rechteck 89" width="3" height="3" transform="translate(0.273 -0.182)" fill="#193f43"/>
      </g>
    </g>
    <g id="Gruppe_1203" data-name="Gruppe 1203" transform="translate(0 104)">
      <g id="Gruppe_1202" data-name="Gruppe 1202" transform="translate(0 0)">
        <path id="Pfad_4764" data-name="Pfad 4764" d="M76.7,119.6a1.3,1.3,0,0,0,1.3-1.3v-13a1.3,1.3,0,0,0-1.3-1.3H1.3A1.3,1.3,0,0,0,0,105.3v13a1.3,1.3,0,0,0,1.3,1.3,6.5,6.5,0,1,1,0,13A1.3,1.3,0,0,0,0,133.9v13a1.3,1.3,0,0,0,1.3,1.3H76.7a1.3,1.3,0,0,0,1.3-1.3v-13a1.3,1.3,0,0,0-1.3-1.3,6.5,6.5,0,0,1,0-13Zm-9.015,7.793a9.1,9.1,0,0,0,7.715,7.715V145.6H2.6V135.108a9.1,9.1,0,0,0,0-18.015V106.6H75.4v10.492A9.1,9.1,0,0,0,67.685,127.393Z" transform="translate(0 -104)" fill="#193f43"/>
      </g>
    </g>
    <g id="Gruppe_1205" data-name="Gruppe 1205" transform="translate(33.8 113.1)">
      <g id="Gruppe_1204" data-name="Gruppe 1204">
        <path id="Pfad_4765" data-name="Pfad 4765" d="M213.2,160a5.2,5.2,0,1,0,5.2,5.2A5.2,5.2,0,0,0,213.2,160Zm0,7.8a2.6,2.6,0,1,1,2.6-2.6A2.6,2.6,0,0,1,213.2,167.8Z" transform="translate(-208 -160)" fill="#193f43"/>
      </g>
    </g>
    <g id="Gruppe_1207" data-name="Gruppe 1207" transform="translate(49.4 128.7)">
      <g id="Gruppe_1206" data-name="Gruppe 1206">
        <path id="Pfad_4766" data-name="Pfad 4766" d="M309.2,256a5.2,5.2,0,1,0,5.2,5.2A5.2,5.2,0,0,0,309.2,256Zm0,7.8a2.6,2.6,0,1,1,2.6-2.6A2.6,2.6,0,0,1,309.2,263.8Z" transform="translate(-304 -256)" fill="#193f43"/>
      </g>
    </g>
    <g id="Gruppe_1209" data-name="Gruppe 1209" transform="translate(35.481 114.778)">
      <g id="Gruppe_1208" data-name="Gruppe 1208" transform="translate(0 0)">
        <rect id="Rechteck_90" data-name="Rechteck 90" width="29.415" height="2.6" transform="translate(0 20.8) rotate(-45)" fill="#193f43"/>
      </g>
    </g>
  </g>
</svg>
