<svg xmlns="http://www.w3.org/2000/svg" xmlns:xlink="http://www.w3.org/1999/xlink" width="108.4" height="108.399" viewBox="0 0 108.4 108.399">
  <defs>
    <linearGradient id="linear-gradient" x1="0.332" y1="0.141" x2="0.585" y2="0.682" gradientUnits="objectBoundingBox">
      <stop offset="0" stop-color="#464646"/>
      <stop offset="1" stop-color="#141414"/>
    </linearGradient>
  </defs>
  <g id="Gruppe_1212" data-name="Gruppe 1212" transform="translate(-5179 -2318)">
    <g id="_0c3d39c" data-name="0c3d39c" transform="translate(5179 2318)">
      <path id="Pfad_57" data-name="Pfad 57" d="M89.01,106.543a327.415,327.415,0,0,1-69.622,0A19.738,19.738,0,0,1,1.856,89.009a327.4,327.4,0,0,1,0-69.621A19.738,19.738,0,0,1,19.389,1.856a327.4,327.4,0,0,1,69.621,0,19.738,19.738,0,0,1,17.534,17.533,327.4,327.4,0,0,1,0,69.621A19.737,19.737,0,0,1,89.01,106.543Zm0,0" fill="url(#linear-gradient)"/>
      <g id="medium" transform="translate(5.106 5.106)">
        <path id="Pfad_4767" data-name="Pfad 4767" d="M73.341,97.788H24.447A24.448,24.448,0,0,1,0,73.342v-48.9A24.448,24.448,0,0,1,24.446,0h48.9A24.447,24.447,0,0,1,97.788,24.447V73.341A24.447,24.447,0,0,1,73.341,97.788" transform="translate(0 0)" fill="#2d2d2d" fill-rule="evenodd"/>
        <path id="Pfad_4768" data-name="Pfad 4768" d="M45.838,27.5h27.5A13.752,13.752,0,0,0,74.747.07C74.279.044,73.816,0,73.341,0H24.447A24.448,24.448,0,0,0,0,24.446v48.9A45.839,45.839,0,0,1,45.837,27.5" fill="#464646" fill-rule="evenodd"/>
        <path id="Pfad_4769" data-name="Pfad 4769" d="M56.447,40.447A24.447,24.447,0,1,0,80.894,64.894V16A24.447,24.447,0,0,1,56.447,40.447" transform="translate(16.894 8.447)" fill="#141414" fill-rule="evenodd" opacity="0.5"/>
        <path id="Pfad_4775" data-name="Pfad 4775" d="M37.13,78.365a3.387,3.387,0,0,1-4.714,3.118,37.3,37.3,0,1,1,29.742-.026,3.361,3.361,0,0,1-4.676-3.092c-.027-4-.027-9.063-.027-9.063a10.162,10.162,0,0,0-2.976-7.186q-.318-.318-.659-.6a.384.384,0,0,1,.246-.678h0A16.938,16.938,0,0,0,67.6,33.707a16.354,16.354,0,0,0-.162-7.805l-.288-1.075a1.694,1.694,0,0,0-2.074-1.2L64,23.917a16.351,16.351,0,0,0-6.436,3.4,17,17,0,0,0-3.5-.361H40.517a17,17,0,0,0-3.494.361,16.351,16.351,0,0,0-6.436-3.4l-1.075-.288a1.694,1.694,0,0,0-2.074,1.2L27.15,25.9a16.354,16.354,0,0,0-.162,7.805,16.938,16.938,0,0,0,13.53,27.126h0a.384.384,0,0,1,.245.679q-.341.287-.659.6a10.162,10.162,0,0,0-2.834,5.492H35.436a10.162,10.162,0,0,1-8.13-4.065h0a6.772,6.772,0,0,0-5.417-2.709h0a1.694,1.694,0,1,0,0,3.387,2.991,2.991,0,0,1,2.565,1.452l.263.438a13.55,13.55,0,0,0,11.62,6.578h.8Z" transform="translate(1.402 2.81)" fill="#fff" fill-rule="evenodd"/>
      </g>
    </g>
  </g>
</svg>
