<svg id="buy" xmlns="http://www.w3.org/2000/svg" width="81.66" height="68.06" viewBox="0 0 81.66 68.06">
  <path id="Pfad_4739" data-name="Pfad 4739" d="M20.083,55.976h8.166A4.087,4.087,0,0,1,32.328,59.9l2.481,12.4h18.64a12.249,12.249,0,1,1,23.093,0H96.3a1.361,1.361,0,0,1,1.335,1.628l-5.444,27.22a1.361,1.361,0,0,1-1.335,1.094H39.136a2.722,2.722,0,0,0,0,5.444H90.854a1.361,1.361,0,0,1,1.361,1.361V114.5a1.361,1.361,0,0,1-1.361,1.361H88.761a5.444,5.444,0,1,1-9.423,0H50.653a5.444,5.444,0,1,1-9.423,0H39.136a1.361,1.361,0,0,1-1.361-1.361v-4.255a5.444,5.444,0,0,1-.25-10.472L32.358,73.936,30.29,63.593a4.056,4.056,0,0,1-2.041.549H20.083a4.083,4.083,0,1,1,0-8.166Zm61.245,62.606a2.722,2.722,0,1,0,2.722-2.722A2.722,2.722,0,0,0,81.327,118.582Zm-38.108,0a2.722,2.722,0,1,0,2.722-2.722A2.722,2.722,0,0,0,43.219,118.582ZM40.5,113.138h49v-2.722h-49ZM46.161,75.03l1.633,10.888H57.44l-.42-8.408a12.338,12.338,0,0,1-2.2-2.48ZM69.689,88.64H60.3l.544,10.888h8.3ZM71.87,99.528h8.285L81.788,88.64H72.414Zm-2.045-13.61.329-6.587a12.211,12.211,0,0,1-10.318,0l.33,6.587ZM57.576,88.64H48.2l1.633,10.888H58.12ZM65,58.7a9.527,9.527,0,1,0,9.527,9.527A9.527,9.527,0,0,0,65,58.7ZM72.971,77.51l-.42,8.408H82.2L83.83,75.03H75.174a12.338,12.338,0,0,1-2.2,2.48Zm13.611-2.48L84.949,85.918H92.46L94.638,75.03Zm5.334,13.61H84.541L82.908,99.528h6.831ZM40.252,99.528h6.831L45.45,88.64H38.075ZM37.53,85.918h7.511L43.408,75.03H35.353ZM20.083,61.42h8.166a1.361,1.361,0,1,0,0-2.722H20.083a1.361,1.361,0,1,0,0,2.722Z" transform="translate(-16 -55.971)" fill="#193f43"/>
</svg>
