<svg xmlns="http://www.w3.org/2000/svg" width="80.663" height="89.199" viewBox="0 0 80.663 89.199">
  <g id="reader" transform="translate(0 0)">
    <path id="Pfad_4753" data-name="Pfad 4753" d="M189.282,145.355a1.317,1.317,0,0,0-1.317,1.317v1.471a1.317,1.317,0,0,0,2.634,0v-1.471A1.317,1.317,0,0,0,189.282,145.355Zm0,0" transform="translate(-155.218 -120.032)" fill="#193f43"/>
    <path id="Pfad_4754" data-name="Pfad 4754" d="M259.45,149.46a1.317,1.317,0,0,0,1.317-1.317v-1.471a1.317,1.317,0,0,0-2.634,0v1.471A1.317,1.317,0,0,0,259.45,149.46Zm0,0" transform="translate(-213.162 -120.032)" fill="#193f43"/>
    <path id="Pfad_4755" data-name="Pfad 4755" d="M96.335,340.8l13.839,2.567a1.337,1.337,0,0,0,.242.022,1.317,1.317,0,0,0,.239-2.612l-13.839-2.567a1.317,1.317,0,0,0-.48,2.589Zm0,0" transform="translate(-78.663 -279.273)" fill="#193f43"/>
    <path id="Pfad_4756" data-name="Pfad 4756" d="M96.335,380.638l13.839,2.567a1.335,1.335,0,0,0,.242.022,1.317,1.317,0,0,0,.239-2.612l-13.839-2.567a1.317,1.317,0,0,0-.48,2.589Zm0,0" transform="translate(-78.663 -312.168)" fill="#193f43"/>
    <path id="Pfad_4757" data-name="Pfad 4757" d="M92.439,417.083l-17.682-3.277a1.317,1.317,0,0,0-.48,2.589l17.682,3.277a1.317,1.317,0,0,0,.48-2.589Zm0,0" transform="translate(-60.447 -341.695)" fill="#193f43"/>
    <path id="Pfad_4758" data-name="Pfad 4758" d="M297.02,254.889a1.316,1.316,0,0,0-1.535-1.054l-18.443,3.426a1.317,1.317,0,0,0,.239,2.611,1.284,1.284,0,0,0,.242-.022l18.442-3.425A1.317,1.317,0,0,0,297.02,254.889Zm0,0" transform="translate(-227.888 -209.594)" fill="#193f43"/>
    <path id="Pfad_4759" data-name="Pfad 4759" d="M292.411,299.655a1.317,1.317,0,0,0-1.535-1.054l-13.835,2.567a1.317,1.317,0,0,0,.239,2.611,1.332,1.332,0,0,0,.242-.022l13.835-2.566A1.317,1.317,0,0,0,292.411,299.655Zm0,0" transform="translate(-227.888 -246.561)" fill="#193f43"/>
    <path id="Pfad_4760" data-name="Pfad 4760" d="M290.116,339.232l-13.074,2.428a1.317,1.317,0,0,0,.239,2.611,1.287,1.287,0,0,0,.242-.022l13.074-2.428a1.317,1.317,0,1,0-.481-2.589Zm0,0" transform="translate(-227.888 -280.113)" fill="#193f43"/>
    <path id="Pfad_4761" data-name="Pfad 4761" d="M276.653,390.261a1.982,1.982,0,0,0,1.293.47,2.093,2.093,0,0,0,.331-.027h.006l12.28-2.011a2.272,2.272,0,0,0,1.874-2.211v-5.795a1.979,1.979,0,0,0-.687-1.511,2,2,0,0,0-1.624-.44l-12.262,2.013a2.259,2.259,0,0,0-1.9,2.209v5.795A1.973,1.973,0,0,0,276.653,390.261ZM278.6,383.3l11.2-1.839v4.692l-11.2,1.834Zm0,0" transform="translate(-227.89 -312.732)" fill="#193f43"/>
    <path id="Pfad_4762" data-name="Pfad 4762" d="M90.174,258.351l-5.893-1a1.317,1.317,0,0,0-.439,2.6l5.606.949v5.168l-15.909-2.7V258.2l4.347.736a1.317,1.317,0,0,0,.44-2.6l-5.076-.859a2,2,0,0,0-2.343,1.995v6.175a2.314,2.314,0,0,0,1.906,2.266l16.926,2.868a2.082,2.082,0,0,0,.342.029,1.992,1.992,0,0,0,1.293-.47,2.026,2.026,0,0,0,.708-1.554v-6.175A2.314,2.314,0,0,0,90.174,258.351Zm0,0" transform="translate(-58.553 -210.949)" fill="#193f43"/>
    <path id="Pfad_4763" data-name="Pfad 4763" d="M75.3,52.771V40.146a4.58,4.58,0,0,0-1.575-3.531,4.434,4.434,0,0,0-3.675-.946L55.354,38.2c2.694-3.516,4.283-7.506,4.283-11V17.34A16.173,16.173,0,0,0,52.256,3.321C46.38-.516,37.854-1.084,31.04,1.909,24.462,4.8,20.69,10.421,20.69,17.34V27.2c0,3.493,1.586,7.482,4.278,10.995L10.3,35.668a4.437,4.437,0,0,0-3.674.946,4.58,4.58,0,0,0-1.575,3.531v13.86A6.689,6.689,0,0,0,0,60.482v5.011a6.688,6.688,0,0,0,5.053,6.475v6.27a5.949,5.949,0,0,0,4.8,5.75L39.949,89.18h.005a1.3,1.3,0,0,0,.218.018,1.272,1.272,0,0,0,.216-.018H40.4l14.1-2.434a1.317,1.317,0,0,0-.448-2.595L41.49,86.319V43.264L52.1,41.435l.009,0L70.5,38.264a1.845,1.845,0,0,1,1.531.364,1.933,1.933,0,0,1,.639,1.518V52.64h-1.03A4.338,4.338,0,0,0,67.3,56.973v9.695A4.338,4.338,0,0,0,71.636,71h1.03v7.237a3.341,3.341,0,0,1-2.617,3.155l-9.162,1.58a1.317,1.317,0,0,0,.223,2.615,1.275,1.275,0,0,0,.225-.02L70.5,83.988a5.949,5.949,0,0,0,4.8-5.751V70.869a6.686,6.686,0,0,0,5.364-6.542v-5.01A6.69,6.69,0,0,0,75.3,52.771ZM32.1,4.32c6.034-2.65,13.556-2.165,18.717,1.205A13.312,13.312,0,0,1,56.98,16.434c-11.053,4.025-15.642,2.287-20.085.6a22.74,22.74,0,0,0-8.65-1.93,23.365,23.365,0,0,0-4.837.54A13.833,13.833,0,0,1,32.1,4.32ZM23.323,27.2V18.367c5.953-1.4,9.208-.167,12.64,1.133a24.34,24.34,0,0,0,9.356,2.031A35.72,35.72,0,0,0,57,19.218V27.2c0,3.707-2.2,8.162-5.772,11.71L40.173,40.819,29.091,38.908C25.525,35.363,23.323,30.909,23.323,27.2ZM2.633,65.492v-5.01a4.051,4.051,0,0,1,4.048-4.044H9.022a1.708,1.708,0,0,1,1.706,1.7v9.689a1.707,1.707,0,0,1-1.706,1.7H6.681A4.051,4.051,0,0,1,2.633,65.492ZM7.686,78.238V72.17H9.022a4.343,4.343,0,0,0,4.339-4.338V58.142a4.343,4.343,0,0,0-4.339-4.337H7.686V40.146a1.932,1.932,0,0,1,.639-1.518,1.847,1.847,0,0,1,1.531-.364l29,5V86.32L10.3,81.392A3.341,3.341,0,0,1,7.686,78.238Zm70.343-13.91a4.048,4.048,0,0,1-4.047,4.039H71.636a1.7,1.7,0,0,1-1.7-1.7V56.973a1.7,1.7,0,0,1,1.7-1.7h2.346a4.05,4.05,0,0,1,4.047,4.044Zm0,0" transform="translate(0 0)" fill="#193f43"/>
  </g>
</svg>
