<svg
  xmlns="http://www.w3.org/2000/svg" width="18.19" height="18.242" viewBox="0 0 18.19 18.242">
  <g id="magnifying-glass-search" transform="translate(-0.49 -0.001)">
    <path id="Pfad_4717" data-name="Pfad 4717" d="M18.45,15.675l-4.368-4.512c-.313-.324-.7-.453-.874-.288s-.562.035-.875-.289l-.062-.065a6.542,6.542,0,1,0-1.128,1.163l.027.029c.313.324.429.719.258.884s-.054.56.259.884l4.365,4.514a.816.816,0,0,0,1.153.019l1.225-1.185A.817.817,0,0,0,18.45,15.675Zm-8.2-5.917a4.522,4.522,0,1,1,0-6.394A4.527,4.527,0,0,1,10.247,9.758Z" transform="translate(0)" fill="#193f43"/>
  </g>
</svg>
