<svg id="supermarket"
  xmlns="http://www.w3.org/2000/svg" width="29.581" height="28.593" viewBox="0 0 29.581 28.593">
  <g id="Gruppe_586" data-name="Gruppe 586" transform="translate(0 0)">
    <g id="Gruppe_558" data-name="Gruppe 558">
      <g id="Gruppe_307" data-name="Gruppe 307" transform="translate(0 10.124)">
        <g id="Gruppe_306" data-name="Gruppe 306">
          <g id="Gruppe_303" data-name="Gruppe 303" transform="translate(14.838 8.567)">
            <path id="Pfad_3837" data-name="Pfad 3837" d="M79.947,83.975l0,1.337L65.2,93.877l0-1.337Z" transform="translate(-65.204 -83.975)" fill="#4c525d"/>
          </g>
          <g id="Gruppe_304" data-name="Gruppe 304" transform="translate(0 8.565)">
            <path id="Pfad_3838" data-name="Pfad 3838" d="M15.977,92.536l0,1.337L1.135,85.306l0-1.337Z" transform="translate(-1.135 -83.97)" fill="#555b66"/>
          </g>
          <g id="Gruppe_305" data-name="Gruppe 305" transform="translate(0.004)">
            <path id="Pfad_3839" data-name="Pfad 3839" d="M30.729,55.551,15.99,64.116,1.152,55.55l14.739-8.565Z" transform="translate(-1.152 -46.984)" fill="#5f656f"/>
          </g>
        </g>
      </g>
      <g id="Gruppe_329" data-name="Gruppe 329" transform="translate(7.042 9.261)">
        <g id="Gruppe_328" data-name="Gruppe 328">
          <g id="Gruppe_308" data-name="Gruppe 308" transform="translate(7.726 8.832)">
            <path id="Pfad_3840" data-name="Pfad 3840" d="M65.254,81.39l-.006,2.144-.345.2,0-2.144Z" transform="translate(-64.903 -81.39)" fill="#b7805a"/>
          </g>
          <g id="Gruppe_309" data-name="Gruppe 309" transform="translate(7.731 9.085)">
            <path id="Pfad_3841" data-name="Pfad 3841" d="M65.271,82.484v.13l-.345.2v-.13Z" transform="translate(-64.924 -82.484)" fill="#9e6a4d"/>
          </g>
          <g id="Gruppe_310" data-name="Gruppe 310" transform="translate(0 4.572)">
            <path id="Pfad_3842" data-name="Pfad 3842" d="M39.274,67.456l0,2.144-7.726-4.461,0-2.144Z" transform="translate(-31.543 -62.995)" fill="#c68b63"/>
          </g>
          <g id="Gruppe_311" data-name="Gruppe 311" transform="translate(0.005 4.825)">
            <path id="Pfad_3843" data-name="Pfad 3843" d="M39.289,68.55v.13L31.562,64.22v-.13Z" transform="translate(-31.562 -64.09)" fill="#9e6a4d"/>
          </g>
          <g id="Gruppe_312" data-name="Gruppe 312" transform="translate(8.071 8.832)">
            <path id="Pfad_3844" data-name="Pfad 3844" d="M68.947,82.86,68.941,85l-2.547-1.471L66.4,81.39Z" transform="translate(-66.394 -81.39)" fill="#aa7957"/>
          </g>
          <g id="Gruppe_313" data-name="Gruppe 313" transform="translate(12.161 7.018)">
            <path id="Pfad_3845" data-name="Pfad 3845" d="M91.922,73.56,91.916,75.7l-7.862,4.572V78.132Z" transform="translate(-84.054 -73.56)" fill="#b7805a"/>
          </g>
          <g id="Gruppe_314" data-name="Gruppe 314" transform="translate(12.161 7.265)">
            <path id="Pfad_3846" data-name="Pfad 3846" d="M91.921,74.623l0,.138-7.862,4.572V79.2Z" transform="translate(-84.055 -74.623)" fill="#9e6a4d"/>
          </g>
          <g id="Gruppe_315" data-name="Gruppe 315" transform="translate(7.731 9.475)">
            <path id="Pfad_3847" data-name="Pfad 3847" d="M65.271,84.169v.13l-.345.2v-.13Z" transform="translate(-64.924 -84.169)" fill="#9e6a4d"/>
          </g>
          <g id="Gruppe_316" data-name="Gruppe 316" transform="translate(0.005 5.215)">
            <path id="Pfad_3848" data-name="Pfad 3848" d="M39.289,70.235v.13L31.562,65.9v-.13Z" transform="translate(-31.562 -65.775)" fill="#9e6a4d"/>
          </g>
          <g id="Gruppe_317" data-name="Gruppe 317" transform="translate(12.161 7.655)">
            <path id="Pfad_3849" data-name="Pfad 3849" d="M91.921,76.308l0,.138-7.862,4.572V80.88Z" transform="translate(-84.055 -76.308)" fill="#9e6a4d"/>
          </g>
          <g id="Gruppe_318" data-name="Gruppe 318" transform="translate(7.731 9.866)">
            <path id="Pfad_3850" data-name="Pfad 3850" d="M65.271,85.854v.13l-.345.2v-.13Z" transform="translate(-64.924 -85.854)" fill="#9e6a4d"/>
          </g>
          <g id="Gruppe_319" data-name="Gruppe 319" transform="translate(0.005 5.606)">
            <path id="Pfad_3851" data-name="Pfad 3851" d="M39.289,71.92v.13L31.562,67.59v-.13Z" transform="translate(-31.562 -67.459)" fill="#9e6a4d"/>
          </g>
          <g id="Gruppe_320" data-name="Gruppe 320" transform="translate(12.161 8.045)">
            <path id="Pfad_3852" data-name="Pfad 3852" d="M91.921,77.993l0,.138L84.055,82.7v-.138Z" transform="translate(-84.055 -77.993)" fill="#9e6a4d"/>
          </g>
          <g id="Gruppe_321" data-name="Gruppe 321" transform="translate(7.731 10.256)">
            <path id="Pfad_3853" data-name="Pfad 3853" d="M65.271,87.538v.13l-.345.2v-.13Z" transform="translate(-64.924 -87.538)" fill="#9e6a4d"/>
          </g>
          <g id="Gruppe_322" data-name="Gruppe 322" transform="translate(0.005 5.996)">
            <path id="Pfad_3854" data-name="Pfad 3854" d="M39.289,73.6v.13l-7.726-4.461v-.13Z" transform="translate(-31.562 -69.144)" fill="#9e6a4d"/>
          </g>
          <g id="Gruppe_323" data-name="Gruppe 323" transform="translate(12.161 8.435)">
            <path id="Pfad_3855" data-name="Pfad 3855" d="M91.921,79.677l0,.138-7.862,4.572v-.138Z" transform="translate(-84.055 -79.677)" fill="#9e6a4d"/>
          </g>
          <g id="Gruppe_324" data-name="Gruppe 324" transform="translate(7.731 10.646)">
            <path id="Pfad_3856" data-name="Pfad 3856" d="M65.271,89.223v.13l-.345.2v-.13Z" transform="translate(-64.924 -89.223)" fill="#9e6a4d"/>
          </g>
          <g id="Gruppe_325" data-name="Gruppe 325" transform="translate(0.005 6.386)">
            <path id="Pfad_3857" data-name="Pfad 3857" d="M39.289,75.289v.13l-7.726-4.461v-.13Z" transform="translate(-31.562 -70.829)" fill="#9e6a4d"/>
          </g>
          <g id="Gruppe_326" data-name="Gruppe 326" transform="translate(12.161 8.825)">
            <path id="Pfad_3858" data-name="Pfad 3858" d="M91.921,81.362l0,.138-7.862,4.572v-.138Z" transform="translate(-84.055 -81.362)" fill="#9e6a4d"/>
          </g>
          <g id="Gruppe_327" data-name="Gruppe 327" transform="translate(0.005)">
            <path id="Pfad_3859" data-name="Pfad 3859" d="M51.587,50.273l-7.868,4.572-1.883-1.087.346-.2-2.547-1.471-.346.2-7.726-4.461,7.868-4.572Z" transform="translate(-31.562 -43.254)" fill="#d49b6e"/>
          </g>
        </g>
      </g>
      <g id="Gruppe_337" data-name="Gruppe 337" transform="translate(7.608 1.027)">
        <g id="Gruppe_336" data-name="Gruppe 336">
          <g id="Gruppe_330" data-name="Gruppe 330" transform="translate(7.152 8.169)">
            <path id="Pfad_3860" data-name="Pfad 3860" d="M65.241,42.973l-.024,8.576-.345.2.024-8.576Z" transform="translate(-64.872 -42.973)" fill="#d3c1a3"/>
          </g>
          <g id="Gruppe_331" data-name="Gruppe 331" transform="translate(0 4.24)">
            <path id="Pfad_3861" data-name="Pfad 3861" d="M41.164,30.138l-.024,8.576-7.152-4.129.024-8.576Z" transform="translate(-33.988 -26.008)" fill="#ead9b5"/>
          </g>
          <g id="Gruppe_332" data-name="Gruppe 332" transform="translate(7.498 8.169)">
            <path id="Pfad_3862" data-name="Pfad 3862" d="M69.506,44.774l-.024,8.576-3.12-1.8.024-8.576Z" transform="translate(-66.362 -42.973)" fill="#ddccac"/>
          </g>
          <g id="Gruppe_333" data-name="Gruppe 333" transform="translate(0 4.24)">
            <path id="Pfad_3863" data-name="Pfad 3863" d="M45.583,32.7v3.229L33.988,29.237l.024-3.229Z" transform="translate(-33.988 -26.008)" fill="#ead9b5"/>
          </g>
          <g id="Gruppe_334" data-name="Gruppe 334" transform="translate(11.595 6.687)">
            <path id="Pfad_3864" data-name="Pfad 3864" d="M91.362,36.576l-.024,8.576-7.284,4.24V40.816Z" transform="translate(-84.054 -36.576)" fill="#d3c1a3"/>
          </g>
          <g id="Gruppe_335" data-name="Gruppe 335" transform="translate(0.024)">
            <path id="Pfad_3865" data-name="Pfad 3865" d="M52.971,14.388l-7.308,4.24-1.3-.757-3.12-1.8L34.093,11.94l7.3-4.24Z" transform="translate(-34.093 -7.701)" fill="#f7e4ba"/>
          </g>
        </g>
      </g>
      <g id="Gruppe_363" data-name="Gruppe 363" transform="translate(15.116 12.841)">
        <g id="Gruppe_349" data-name="Gruppe 349">
          <g id="Gruppe_338" data-name="Gruppe 338" transform="translate(1.135 0.867)">
            <path id="Pfad_3866" data-name="Pfad 3866" d="M71.3,62.461l1.461.843-.006,3.416Z" transform="translate(-71.303 -62.461)" fill="#69b4ff"/>
          </g>
          <g id="Gruppe_339" data-name="Gruppe 339" transform="translate(0.209 0.561)">
            <path id="Pfad_3867" data-name="Pfad 3867" d="M67.305,62.129l0-.993L69.639,67l-.441-.254Z" transform="translate(-67.305 -61.136)" fill="#69b4ff"/>
          </g>
          <g id="Gruppe_340" data-name="Gruppe 340" transform="translate(0.212 0.335)">
            <path id="Pfad_3868" data-name="Pfad 3868" d="M68.241,60.694l1.454,4.259,0,1.318-.042-.024-2.331-5.86v-.226Z" transform="translate(-67.318 -60.161)" fill="#78c2ff"/>
          </g>
          <g id="Gruppe_341" data-name="Gruppe 341" transform="translate(1.601 6.325)">
            <path id="Pfad_3869" data-name="Pfad 3869" d="M74.2,86.534l0,1.743-.88-.508,0-1.743Z" transform="translate(-73.319 -86.026)" fill="#9e6a4d"/>
          </g>
          <g id="Gruppe_344" data-name="Gruppe 344" transform="translate(0.202 1.554)">
            <g id="Gruppe_342" data-name="Gruppe 342" transform="translate(0 0.451)">
              <path id="Pfad_3870" data-name="Pfad 3870" d="M67.277,70.437l.005-3.064,1.53,3.95Z" transform="translate(-67.277 -67.374)" fill="#69b4ff"/>
            </g>
            <g id="Gruppe_343" data-name="Gruppe 343" transform="translate(0.005)">
              <path id="Pfad_3871" data-name="Pfad 3871" d="M67.3,65.425l1.893,4.612-.364-.21-1.53-3.95Z" transform="translate(-67.3 -65.425)" fill="#78c2ff"/>
            </g>
          </g>
          <g id="Gruppe_345" data-name="Gruppe 345" transform="translate(0.247 5.489)">
            <path id="Pfad_3872" data-name="Pfad 3872" d="M67.474,82.418l.97.56-.005,1.849-.97-.56Zm.92,2.331,0-1.743-.88-.508,0,1.743Z" transform="translate(-67.469 -82.418)" fill="#875744"/>
          </g>
          <g id="Gruppe_346" data-name="Gruppe 346" transform="translate(0.292 5.569)">
            <path id="Pfad_3873" data-name="Pfad 3873" d="M68.55,83.27l0,1.743-.88-.508,0-1.743Z" transform="translate(-67.665 -82.762)" fill="#9e6a4d"/>
          </g>
          <g id="Gruppe_347" data-name="Gruppe 347" transform="translate(1.556 6.245)">
            <path id="Pfad_3874" data-name="Pfad 3874" d="M73.128,85.682l.97.56-.005,1.849-.97-.56Zm.92,2.331,0-1.743-.88-.508,0,1.743Z" transform="translate(-73.123 -85.682)" fill="#875744"/>
          </g>
          <g id="Gruppe_348" data-name="Gruppe 348">
            <path id="Pfad_3875" data-name="Pfad 3875" d="M66.422,58.715l2.771,1.6-.018,7.478-2.771-1.6Zm2.571,5.126L69,60.426l-1.461-.843-.922-.533-.01,4.734,2.383,1.376Zm-1.372,2.772.005-1.849-.97-.56-.005,1.849Zm1.309.756.005-1.849-.97-.56-.005,1.849Z" transform="translate(-66.404 -58.715)" fill="#9e6a4d"/>
          </g>
        </g>
        <g id="Gruppe_362" data-name="Gruppe 362" transform="translate(0.787 3.513)">
          <g id="Gruppe_350" data-name="Gruppe 350" transform="translate(0.376 0.574)">
            <path id="Pfad_3876" data-name="Pfad 3876" d="M71.628,76.539a.1.1,0,0,1-.006.047l-.03.02a.091.091,0,0,1-.048-.01l-.044-.017.008.073-.051-.021-.03-.266.095.038.019.009a.178.178,0,0,1,.032.023.149.149,0,0,1,.037.047.157.157,0,0,1,.018.056Zm-.059.008.009-.029-.017-.039a.079.079,0,0,0-.025-.022l-.01-.005-.041-.016.011.093.041.017c.014,0,.025.007.033,0" transform="translate(-71.427 -76.365)" fill="#4c525d"/>
          </g>
          <g id="Gruppe_351" data-name="Gruppe 351" transform="translate(0.433 0.645)">
            <path id="Pfad_3877" data-name="Pfad 3877" d="M71.722,76.694a.078.078,0,0,1,.025.022l.017.039-.009.029c-.007.006-.018,0-.033,0l-.041-.017-.011-.093.041.016Z" transform="translate(-71.671 -76.673)" fill="#fff"/>
          </g>
          <g id="Gruppe_352" data-name="Gruppe 352" transform="translate(0.115 0.495)">
            <path id="Pfad_3878" data-name="Pfad 3878" d="M70.537,76.218a.107.107,0,0,1-.007.066.054.054,0,0,1-.037.032.09.09,0,0,1-.058-.007l-.021-.011a.208.208,0,0,1-.042-.033.249.249,0,0,1-.048-.067.227.227,0,0,1-.024-.077.136.136,0,0,1,.007-.066.06.06,0,0,1,.037-.032.1.1,0,0,1,.059.008l.021.011a.19.19,0,0,1,.041.032.28.28,0,0,1,.049.067A.219.219,0,0,1,70.537,76.218Zm-.054.021,0-.041-.014-.049-.027-.04-.037-.026-.033,0-.021.02,0,.04.014.049.028.041.035.025.034,0Z" transform="translate(-70.299 -76.022)" fill="#4c525d"/>
          </g>
          <g id="Gruppe_353" data-name="Gruppe 353" transform="translate(0.167 0.554)">
            <path id="Pfad_3879" data-name="Pfad 3879" d="M70.618,76.307l.027.04.014.049,0,.041-.021.02-.034,0-.035-.025-.028-.041-.014-.049,0-.04.021-.02.033,0Z" transform="translate(-70.523 -76.278)" fill="#fff"/>
          </g>
          <g id="Gruppe_361" data-name="Gruppe 361">
            <g id="Gruppe_354" data-name="Gruppe 354" transform="translate(0 0.288)">
              <path id="Pfad_3880" data-name="Pfad 3880" d="M70.979,76.06c0,.035-.016.054-.043.044l-1.027-.424-.008,0a.111.111,0,0,1-.05-.08l-.048-.421c0-.035.016-.053.044-.041l.091.038.021.009.756.311.032.013.126.052.008,0a.111.111,0,0,1,.05.08ZM69.9,75.617l1.026.422-.047-.419L69.854,75.2Z" transform="translate(-69.803 -75.13)" fill="#f06260"/>
            </g>
            <g id="Gruppe_355" data-name="Gruppe 355" transform="translate(0.601 0.666)">
              <path id="Pfad_3881" data-name="Pfad 3881" d="M72.562,76.83l.006.05-.114-.048.007.059.1.041.006.049-.1-.043.007.063.119.049.006.049-.168-.068-.03-.268Z" transform="translate(-72.398 -76.763)" fill="#4c525d"/>
            </g>
            <g id="Gruppe_356" data-name="Gruppe 356" transform="translate(0.809 0.752)">
              <path id="Pfad_3882" data-name="Pfad 3882" d="M73.5,77.215l.03.268-.042-.018-.127-.207.019.162-.049-.02-.032-.267.042.016.127.208-.019-.164Z" transform="translate(-73.295 -77.134)" fill="#4c525d"/>
            </g>
            <g id="Gruppe_357" data-name="Gruppe 357" transform="translate(0.537 0.092)">
              <path id="Pfad_3883" data-name="Pfad 3883" d="M72.12,74.313l.055-.031.053.092a.05.05,0,0,1-.054,0,.13.13,0,0,1-.028-.022A.175.175,0,0,1,72.12,74.313Z" transform="translate(-72.12 -74.282)" fill="#4c525d"/>
            </g>
            <g id="Gruppe_358" data-name="Gruppe 358" transform="translate(0.517)">
              <path id="Pfad_3884" data-name="Pfad 3884" d="M72.135,73.919a.139.139,0,0,1,.041.134l-.068-.117-.069.039a.1.1,0,0,1,0-.065c.012-.026.039-.031.068-.014a.127.127,0,0,1,.028.022Z" transform="translate(-72.033 -73.887)" fill="#4c525d"/>
            </g>
            <g id="Gruppe_359" data-name="Gruppe 359" transform="translate(0.127 0.049)">
              <path id="Pfad_3885" data-name="Pfad 3885" d="M70.814,74.1l.068.117.286.495-.032-.013-.268-.464-.053-.092-.055.031-.38.215-.021-.009-.009-.016.4-.224Z" transform="translate(-70.349 -74.1)" fill="#4c525d"/>
            </g>
            <g id="Gruppe_360" data-name="Gruppe 360" transform="translate(0.051 0.354)">
              <path id="Pfad_3886" data-name="Pfad 3886" d="M71.052,75.838l.047.419-1.026-.422-.048-.421Zm-.081.306.042.018-.03-.268-.051-.021.019.164-.127-.208-.042-.016.032.267.049.02-.019-.162Zm-.651-.327a.107.107,0,0,0,.007-.066.219.219,0,0,0-.022-.076.28.28,0,0,0-.049-.067.192.192,0,0,0-.041-.032l-.021-.011a.1.1,0,0,0-.059-.008.06.06,0,0,0-.037.032.136.136,0,0,0-.007.066.226.226,0,0,0,.024.077.249.249,0,0,0,.048.067.208.208,0,0,0,.042.033l.021.011a.09.09,0,0,0,.058.007.054.054,0,0,0,.037-.032m.285.178.168.068-.006-.049-.119-.049-.007-.063.1.043-.006-.049-.1-.041-.007-.059.114.048-.006-.05-.164-.067Zm-.06-.139a.1.1,0,0,0,.006-.047.157.157,0,0,0-.018-.056.149.149,0,0,0-.037-.047.179.179,0,0,0-.032-.023l-.019-.009-.095-.038.03.266.051.021-.008-.073.044.017a.09.09,0,0,0,.048.01Z" transform="translate(-70.025 -75.414)" fill="#fff"/>
            </g>
          </g>
        </g>
      </g>
      <g id="Gruppe_364" data-name="Gruppe 364" transform="translate(17.315 19.764)">
        <path id="Pfad_3887" data-name="Pfad 3887" d="M77.791,89.694v2.144L75.9,90.75l.005-2.144Z" transform="translate(-75.903 -88.606)" fill="#c68b63"/>
      </g>
      <g id="Gruppe_365" data-name="Gruppe 365" transform="translate(17.321 20.01)">
        <path id="Pfad_3888" data-name="Pfad 3888" d="M77.808,90.757v.138l-1.883-1.087V89.67Z" transform="translate(-75.925 -89.67)" fill="#9e6a4d"/>
      </g>
      <g id="Gruppe_366" data-name="Gruppe 366" transform="translate(17.321 20.4)">
        <path id="Pfad_3889" data-name="Pfad 3889" d="M77.808,92.442v.138l-1.883-1.087v-.138Z" transform="translate(-75.925 -91.354)" fill="#9e6a4d"/>
      </g>
      <g id="Gruppe_367" data-name="Gruppe 367" transform="translate(17.321 20.79)">
        <path id="Pfad_3890" data-name="Pfad 3890" d="M77.808,94.126v.138l-1.883-1.087v-.138Z" transform="translate(-75.925 -93.039)" fill="#9e6a4d"/>
      </g>
      <g id="Gruppe_368" data-name="Gruppe 368" transform="translate(17.321 21.18)">
        <path id="Pfad_3891" data-name="Pfad 3891" d="M77.808,95.811v.138l-1.883-1.087v-.138Z" transform="translate(-75.925 -94.724)" fill="#9e6a4d"/>
      </g>
      <g id="Gruppe_369" data-name="Gruppe 369" transform="translate(17.321 21.571)">
        <path id="Pfad_3892" data-name="Pfad 3892" d="M77.808,97.5v.138l-1.883-1.087v-.138Z" transform="translate(-75.925 -96.409)" fill="#9e6a4d"/>
      </g>
      <path id="Pfad_3893" data-name="Pfad 3893" d="M77.808,89.186v-.321l-1.618-.919-.264.153Z" transform="translate(-58.605 -68.335)" fill="#d49b6e"/>
      <g id="Gruppe_370" data-name="Gruppe 370" transform="translate(17.585 11.035)">
        <path id="Pfad_3894" data-name="Pfad 3894" d="M78.684,51.833v8.576l-1.618-.919.024-8.576Z" transform="translate(-77.065 -50.914)" fill="#ead9b5"/>
      </g>
      <g id="Gruppe_375" data-name="Gruppe 375" transform="translate(7.042)">
        <g id="Gruppe_374" data-name="Gruppe 374">
          <g id="Gruppe_371" data-name="Gruppe 371" transform="translate(0 4.572)">
            <path id="Pfad_3895" data-name="Pfad 3895" d="M43.7,30.026V32.17L31.543,25.152l.006-2.144Z" transform="translate(-31.543 -23.008)" fill="#c68b63"/>
          </g>
          <g id="Gruppe_372" data-name="Gruppe 372" transform="translate(12.161 7.018)">
            <path id="Pfad_3896" data-name="Pfad 3896" d="M91.922,33.572l-.006,2.144-7.862,4.572V38.144Z" transform="translate(-84.054 -33.572)" fill="#b7805a"/>
          </g>
          <g id="Gruppe_373" data-name="Gruppe 373" transform="translate(0.006)">
            <path id="Pfad_3897" data-name="Pfad 3897" d="M51.592,10.285l-7.868,4.572L41.842,13.77,39.295,12.3,31.569,7.839l7.867-4.572Z" transform="translate(-31.569 -3.267)" fill="#d49b6e"/>
            <path id="Pfad_3898" data-name="Pfad 3898" d="M57.79,17.188,47.719,11.373,42.346,14.5l10.07,5.815Z" transform="translate(-39.85 -9.496)" fill="#ebebeb"/>
          </g>
        </g>
      </g>
      <g id="Gruppe_376" data-name="Gruppe 376" transform="translate(18.135 16.901)">
        <path id="Pfad_3899" data-name="Pfad 3899" d="M79.755,76.288c-.174-.1-.314-.02-.315.18a.69.69,0,0,0,.313.543c.174.1.316.021.316-.18A.692.692,0,0,0,79.755,76.288Z" transform="translate(-79.44 -76.245)" fill="#5f656f"/>
      </g>
      <g id="Gruppe_377" data-name="Gruppe 377" transform="translate(15.452 16.594)">
        <path id="Pfad_3900" data-name="Pfad 3900" d="M70.259,75.994a.116.116,0,0,1-.04-.007l-2.288-.842a.116.116,0,1,1,.08-.217l2.243.825.5-.226a.116.116,0,1,1,.1.211l-.538.246a.116.116,0,0,1-.048.01Z" transform="translate(-67.856 -74.921)" fill="#4c525d"/>
      </g>
      <g id="Gruppe_448" data-name="Gruppe 448" transform="translate(3.448 6.862)">
        <g id="Gruppe_382" data-name="Gruppe 382">
          <g id="Gruppe_380" data-name="Gruppe 380" transform="translate(0.36)">
            <g id="Gruppe_378" data-name="Gruppe 378">
              <path id="Pfad_3901" data-name="Pfad 3901" d="M22.016,33.392a5.441,5.441,0,0,1-1.646,1.916,6.559,6.559,0,0,1-.591.384,13.152,13.152,0,0,1-1.318.639l-.029.013-.85-.494.029-.013a13.147,13.147,0,0,0,1.318-.639,6.56,6.56,0,0,0,.591-.384A5.442,5.442,0,0,0,21.165,32.9Z" transform="translate(-17.581 -32.898)" fill="#f06260"/>
            </g>
            <g id="Gruppe_379" data-name="Gruppe 379" transform="translate(0.315 0.494)">
              <path id="Pfad_3902" data-name="Pfad 3902" d="M23.06,35.032a5.437,5.437,0,0,1-1.647,1.916,6.5,6.5,0,0,1-.591.384,13.09,13.09,0,0,1-1.318.639l-.029.013-.536,1.348.009,0a.616.616,0,0,0,.337-.4l.24-.879a12.844,12.844,0,0,0,1.3-.63,6.632,6.632,0,0,0,.6-.391,5.6,5.6,0,0,0,1.695-1.975Z" transform="translate(-18.94 -35.032)" fill="#cc4e4e"/>
            </g>
          </g>
          <g id="Gruppe_381" data-name="Gruppe 381" transform="translate(0 2.951)">
            <path id="Pfad_3903" data-name="Pfad 3903" d="M16.275,47.466a.5.5,0,0,1-.232-.566l.343-1.257.85.494-.287,1.053A.459.459,0,0,1,16.275,47.466Z" transform="translate(-16.025 -45.642)" fill="#e25656"/>
          </g>
        </g>
        <g id="Gruppe_387" data-name="Gruppe 387" transform="translate(0.85 0.494)">
          <g id="Gruppe_385" data-name="Gruppe 385" transform="translate(0.36)">
            <g id="Gruppe_383" data-name="Gruppe 383">
              <path id="Pfad_3904" data-name="Pfad 3904" d="M25.688,35.526a5.441,5.441,0,0,1-1.646,1.916,6.561,6.561,0,0,1-.591.384,13.152,13.152,0,0,1-1.318.639l-.029.013-.85-.494.029-.013a13.148,13.148,0,0,0,1.318-.639,6.561,6.561,0,0,0,.591-.384,5.442,5.442,0,0,0,1.646-1.916Z" transform="translate(-21.253 -35.032)" fill="#fff"/>
            </g>
            <g id="Gruppe_384" data-name="Gruppe 384" transform="translate(0.315 0.494)">
              <path id="Pfad_3905" data-name="Pfad 3905" d="M26.732,37.166a5.437,5.437,0,0,1-1.647,1.916,6.506,6.506,0,0,1-.591.384,13.091,13.091,0,0,1-1.318.639l-.029.013-.536,1.348.009,0a.616.616,0,0,0,.337-.4l.24-.879a12.844,12.844,0,0,0,1.3-.63,6.633,6.633,0,0,0,.6-.391,5.6,5.6,0,0,0,1.695-1.975Z" transform="translate(-22.612 -37.166)" fill="#ccc"/>
            </g>
          </g>
          <g id="Gruppe_386" data-name="Gruppe 386" transform="translate(0 2.951)">
            <path id="Pfad_3906" data-name="Pfad 3906" d="M19.947,49.6a.5.5,0,0,1-.232-.566l.343-1.257.85.494-.287,1.053A.459.459,0,0,1,19.947,49.6Z" transform="translate(-19.698 -47.776)" fill="#dadada"/>
          </g>
        </g>
        <g id="Gruppe_392" data-name="Gruppe 392" transform="translate(1.701 0.988)">
          <g id="Gruppe_390" data-name="Gruppe 390" transform="translate(0.36)">
            <g id="Gruppe_388" data-name="Gruppe 388">
              <path id="Pfad_3907" data-name="Pfad 3907" d="M29.361,37.661a5.441,5.441,0,0,1-1.646,1.916,6.562,6.562,0,0,1-.591.384,13.153,13.153,0,0,1-1.318.639l-.029.013-.85-.494.029-.013a13.148,13.148,0,0,0,1.318-.639,6.56,6.56,0,0,0,.591-.384,5.442,5.442,0,0,0,1.646-1.916Z" transform="translate(-24.926 -37.166)" fill="#f06260"/>
            </g>
            <g id="Gruppe_389" data-name="Gruppe 389" transform="translate(0.315 0.494)">
              <path id="Pfad_3908" data-name="Pfad 3908" d="M30.4,39.3a5.437,5.437,0,0,1-1.647,1.916,6.505,6.505,0,0,1-.591.384,13.091,13.091,0,0,1-1.318.639l-.029.013L26.284,43.6l.009,0a.616.616,0,0,0,.337-.4l.24-.879a12.844,12.844,0,0,0,1.3-.63,6.633,6.633,0,0,0,.6-.391,5.6,5.6,0,0,0,1.695-1.975Z" transform="translate(-26.284 -39.3)" fill="#cc4e4e"/>
            </g>
          </g>
          <g id="Gruppe_391" data-name="Gruppe 391" transform="translate(0 2.951)">
            <path id="Pfad_3909" data-name="Pfad 3909" d="M23.62,51.734a.5.5,0,0,1-.232-.566l.343-1.257.85.494-.287,1.053A.459.459,0,0,1,23.62,51.734Z" transform="translate(-23.37 -49.91)" fill="#e25656"/>
          </g>
        </g>
        <g id="Gruppe_397" data-name="Gruppe 397" transform="translate(2.551 1.483)">
          <g id="Gruppe_395" data-name="Gruppe 395" transform="translate(0.36)">
            <g id="Gruppe_393" data-name="Gruppe 393">
              <path id="Pfad_3910" data-name="Pfad 3910" d="M33.033,39.795a5.441,5.441,0,0,1-1.646,1.916,6.559,6.559,0,0,1-.591.384,13.152,13.152,0,0,1-1.318.639l-.029.013-.85-.494.029-.013a13.149,13.149,0,0,0,1.318-.639,6.563,6.563,0,0,0,.591-.384A5.442,5.442,0,0,0,32.182,39.3Z" transform="translate(-28.598 -39.3)" fill="#fff"/>
            </g>
            <g id="Gruppe_394" data-name="Gruppe 394" transform="translate(0.315 0.494)">
              <path id="Pfad_3911" data-name="Pfad 3911" d="M34.077,41.434A5.437,5.437,0,0,1,32.43,43.35a6.5,6.5,0,0,1-.591.384,13.089,13.089,0,0,1-1.318.639l-.029.013-.536,1.348.009,0a.616.616,0,0,0,.337-.4l.24-.879a12.844,12.844,0,0,0,1.3-.63,6.633,6.633,0,0,0,.6-.391,5.6,5.6,0,0,0,1.695-1.975Z" transform="translate(-29.957 -41.434)" fill="#ccc"/>
            </g>
          </g>
          <g id="Gruppe_396" data-name="Gruppe 396" transform="translate(0 2.951)">
            <path id="Pfad_3912" data-name="Pfad 3912" d="M27.292,53.868a.5.5,0,0,1-.232-.566l.343-1.257.85.494-.287,1.053A.459.459,0,0,1,27.292,53.868Z" transform="translate(-27.042 -52.044)" fill="#dadada"/>
          </g>
        </g>
        <g id="Gruppe_402" data-name="Gruppe 402" transform="translate(3.402 1.977)">
          <g id="Gruppe_400" data-name="Gruppe 400" transform="translate(0.36)">
            <g id="Gruppe_398" data-name="Gruppe 398">
              <path id="Pfad_3913" data-name="Pfad 3913" d="M36.705,41.929a5.441,5.441,0,0,1-1.646,1.916,6.563,6.563,0,0,1-.591.384,13.152,13.152,0,0,1-1.318.639l-.029.013-.85-.494.029-.013a13.149,13.149,0,0,0,1.318-.639,6.562,6.562,0,0,0,.591-.384,5.442,5.442,0,0,0,1.646-1.916Z" transform="translate(-32.27 -41.434)" fill="#f06260"/>
            </g>
            <g id="Gruppe_399" data-name="Gruppe 399" transform="translate(0.315 0.494)">
              <path id="Pfad_3914" data-name="Pfad 3914" d="M37.749,43.568A5.437,5.437,0,0,1,36.1,45.484a6.505,6.505,0,0,1-.591.384,13.091,13.091,0,0,1-1.318.639l-.029.013-.536,1.348.009,0a.616.616,0,0,0,.337-.4l.24-.879a12.844,12.844,0,0,0,1.3-.63,6.634,6.634,0,0,0,.6-.391,5.6,5.6,0,0,0,1.695-1.975Z" transform="translate(-33.629 -43.568)" fill="#cc4e4e"/>
            </g>
          </g>
          <g id="Gruppe_401" data-name="Gruppe 401" transform="translate(0 2.951)">
            <path id="Pfad_3915" data-name="Pfad 3915" d="M30.964,56a.5.5,0,0,1-.232-.566l.343-1.257.85.494-.287,1.053a.459.459,0,0,1-.674.276Z" transform="translate(-30.714 -54.178)" fill="#e25656"/>
          </g>
        </g>
        <g id="Gruppe_407" data-name="Gruppe 407" transform="translate(4.252 2.471)">
          <g id="Gruppe_405" data-name="Gruppe 405" transform="translate(0.36)">
            <g id="Gruppe_403" data-name="Gruppe 403">
              <path id="Pfad_3916" data-name="Pfad 3916" d="M40.377,44.063a5.441,5.441,0,0,1-1.646,1.916,6.561,6.561,0,0,1-.591.384A13.154,13.154,0,0,1,36.822,47l-.029.013-.85-.494.029-.013a13.149,13.149,0,0,0,1.318-.639,6.561,6.561,0,0,0,.591-.384,5.442,5.442,0,0,0,1.646-1.916Z" transform="translate(-35.943 -43.568)" fill="#fff"/>
            </g>
            <g id="Gruppe_404" data-name="Gruppe 404" transform="translate(0.315 0.494)">
              <path id="Pfad_3917" data-name="Pfad 3917" d="M41.422,45.7a5.437,5.437,0,0,1-1.647,1.916,6.506,6.506,0,0,1-.591.384,13.091,13.091,0,0,1-1.318.639l-.029.013L37.3,50l.009,0a.616.616,0,0,0,.337-.4l.24-.879a12.844,12.844,0,0,0,1.3-.63,6.633,6.633,0,0,0,.6-.391,5.6,5.6,0,0,0,1.695-1.975Z" transform="translate(-37.301 -45.702)" fill="#ccc"/>
            </g>
          </g>
          <g id="Gruppe_406" data-name="Gruppe 406" transform="translate(0 2.951)">
            <path id="Pfad_3918" data-name="Pfad 3918" d="M34.637,58.136a.5.5,0,0,1-.232-.566l.343-1.257.85.494-.287,1.053A.459.459,0,0,1,34.637,58.136Z" transform="translate(-34.387 -56.312)" fill="#dadada"/>
          </g>
        </g>
        <g id="Gruppe_412" data-name="Gruppe 412" transform="translate(5.103 2.965)">
          <g id="Gruppe_410" data-name="Gruppe 410" transform="translate(0.36)">
            <g id="Gruppe_408" data-name="Gruppe 408">
              <path id="Pfad_3919" data-name="Pfad 3919" d="M44.05,46.2A5.441,5.441,0,0,1,42.4,48.113a6.56,6.56,0,0,1-.591.384,13.152,13.152,0,0,1-1.318.639l-.029.013-.85-.494.029-.013A13.149,13.149,0,0,0,40.962,48a6.562,6.562,0,0,0,.591-.384A5.442,5.442,0,0,0,43.2,45.7Z" transform="translate(-39.615 -45.702)" fill="#f06260"/>
            </g>
            <g id="Gruppe_409" data-name="Gruppe 409" transform="translate(0.315 0.494)">
              <path id="Pfad_3920" data-name="Pfad 3920" d="M45.094,47.836a5.437,5.437,0,0,1-1.647,1.916,6.505,6.505,0,0,1-.591.384,13.09,13.09,0,0,1-1.318.639l-.029.013-.536,1.348.009,0a.616.616,0,0,0,.337-.4l.24-.879a12.844,12.844,0,0,0,1.3-.63,6.632,6.632,0,0,0,.6-.391,5.6,5.6,0,0,0,1.695-1.975Z" transform="translate(-40.973 -47.836)" fill="#cc4e4e"/>
            </g>
          </g>
          <g id="Gruppe_411" data-name="Gruppe 411" transform="translate(0 2.951)">
            <path id="Pfad_3921" data-name="Pfad 3921" d="M38.309,60.27a.5.5,0,0,1-.232-.566l.343-1.257.85.494-.287,1.053A.459.459,0,0,1,38.309,60.27Z" transform="translate(-38.059 -58.446)" fill="#e25656"/>
          </g>
        </g>
        <g id="Gruppe_417" data-name="Gruppe 417" transform="translate(5.953 3.46)">
          <g id="Gruppe_415" data-name="Gruppe 415" transform="translate(0.36)">
            <g id="Gruppe_413" data-name="Gruppe 413">
              <path id="Pfad_3922" data-name="Pfad 3922" d="M47.722,48.331a5.441,5.441,0,0,1-1.646,1.916,6.56,6.56,0,0,1-.591.384,13.153,13.153,0,0,1-1.318.639l-.029.013-.85-.494.029-.013a13.149,13.149,0,0,0,1.318-.639,6.562,6.562,0,0,0,.591-.384,5.442,5.442,0,0,0,1.646-1.916Z" transform="translate(-43.287 -47.836)" fill="#fff"/>
            </g>
            <g id="Gruppe_414" data-name="Gruppe 414" transform="translate(0.315 0.494)">
              <path id="Pfad_3923" data-name="Pfad 3923" d="M48.766,49.97a5.437,5.437,0,0,1-1.647,1.916,6.506,6.506,0,0,1-.591.384,13.092,13.092,0,0,1-1.318.639l-.029.013-.536,1.348.009,0a.616.616,0,0,0,.337-.4l.24-.879a12.843,12.843,0,0,0,1.3-.63,6.63,6.63,0,0,0,.6-.391,5.6,5.6,0,0,0,1.695-1.975Z" transform="translate(-44.646 -49.97)" fill="#ccc"/>
            </g>
          </g>
          <g id="Gruppe_416" data-name="Gruppe 416" transform="translate(0 2.951)">
            <path id="Pfad_3924" data-name="Pfad 3924" d="M41.981,62.4a.5.5,0,0,1-.232-.566l.343-1.257.85.494-.287,1.053A.459.459,0,0,1,41.981,62.4Z" transform="translate(-41.731 -60.581)" fill="#dadada"/>
          </g>
        </g>
        <g id="Gruppe_422" data-name="Gruppe 422" transform="translate(6.804 3.954)">
          <g id="Gruppe_420" data-name="Gruppe 420" transform="translate(0.36)">
            <g id="Gruppe_418" data-name="Gruppe 418">
              <path id="Pfad_3925" data-name="Pfad 3925" d="M51.394,50.465a5.441,5.441,0,0,1-1.646,1.916,6.561,6.561,0,0,1-.591.384,13.154,13.154,0,0,1-1.318.639l-.029.013-.85-.494.029-.013a13.147,13.147,0,0,0,1.318-.639,6.559,6.559,0,0,0,.591-.384,5.442,5.442,0,0,0,1.646-1.916Z" transform="translate(-46.959 -49.971)" fill="#f06260"/>
            </g>
            <g id="Gruppe_419" data-name="Gruppe 419" transform="translate(0.315 0.494)">
              <path id="Pfad_3926" data-name="Pfad 3926" d="M52.439,52.1a5.437,5.437,0,0,1-1.647,1.916,6.506,6.506,0,0,1-.591.384,13.093,13.093,0,0,1-1.318.639l-.029.013L48.318,56.4l.009,0a.616.616,0,0,0,.337-.4l.24-.879a12.843,12.843,0,0,0,1.3-.63,6.631,6.631,0,0,0,.6-.391A5.6,5.6,0,0,0,52.5,52.124Z" transform="translate(-48.318 -52.104)" fill="#cc4e4e"/>
            </g>
          </g>
          <g id="Gruppe_421" data-name="Gruppe 421" transform="translate(0 2.951)">
            <path id="Pfad_3927" data-name="Pfad 3927" d="M45.653,64.538a.5.5,0,0,1-.232-.566l.343-1.257.85.494-.287,1.053A.459.459,0,0,1,45.653,64.538Z" transform="translate(-45.404 -62.715)" fill="#e25656"/>
          </g>
        </g>
        <g id="Gruppe_427" data-name="Gruppe 427" transform="translate(7.654 4.448)">
          <g id="Gruppe_425" data-name="Gruppe 425" transform="translate(0.36)">
            <g id="Gruppe_423" data-name="Gruppe 423">
              <path id="Pfad_3928" data-name="Pfad 3928" d="M55.067,52.6a5.441,5.441,0,0,1-1.646,1.916,6.561,6.561,0,0,1-.591.384,13.152,13.152,0,0,1-1.318.639l-.029.013-.85-.494.029-.013a13.148,13.148,0,0,0,1.318-.639,6.562,6.562,0,0,0,.591-.384A5.442,5.442,0,0,0,54.216,52.1Z" transform="translate(-50.632 -52.104)" fill="#fff"/>
            </g>
            <g id="Gruppe_424" data-name="Gruppe 424" transform="translate(0.315 0.494)">
              <path id="Pfad_3929" data-name="Pfad 3929" d="M56.111,54.238a5.437,5.437,0,0,1-1.647,1.916,6.506,6.506,0,0,1-.591.384,13.09,13.09,0,0,1-1.318.639l-.029.013-.536,1.348.009,0a.616.616,0,0,0,.337-.4l.24-.879a12.842,12.842,0,0,0,1.3-.63,6.632,6.632,0,0,0,.6-.391,5.6,5.6,0,0,0,1.695-1.975Z" transform="translate(-51.991 -54.238)" fill="#ccc"/>
            </g>
          </g>
          <g id="Gruppe_426" data-name="Gruppe 426" transform="translate(0 2.951)">
            <path id="Pfad_3930" data-name="Pfad 3930" d="M49.326,66.672a.5.5,0,0,1-.232-.566l.343-1.257.85.494L50,66.4A.459.459,0,0,1,49.326,66.672Z" transform="translate(-49.076 -64.849)" fill="#dadada"/>
          </g>
        </g>
        <g id="Gruppe_432" data-name="Gruppe 432" transform="translate(8.505 4.942)">
          <g id="Gruppe_430" data-name="Gruppe 430" transform="translate(0.36)">
            <g id="Gruppe_428" data-name="Gruppe 428">
              <path id="Pfad_3931" data-name="Pfad 3931" d="M58.739,54.733a5.441,5.441,0,0,1-1.646,1.916,6.561,6.561,0,0,1-.591.384,13.154,13.154,0,0,1-1.318.639l-.029.013-.85-.494.029-.013a13.147,13.147,0,0,0,1.318-.639,6.56,6.56,0,0,0,.591-.384,5.441,5.441,0,0,0,1.646-1.916Z" transform="translate(-54.304 -54.239)" fill="#f06260"/>
            </g>
            <g id="Gruppe_429" data-name="Gruppe 429" transform="translate(0.315 0.494)">
              <path id="Pfad_3932" data-name="Pfad 3932" d="M59.783,56.372a5.437,5.437,0,0,1-1.647,1.916,6.5,6.5,0,0,1-.591.384,13.091,13.091,0,0,1-1.318.639l-.029.013-.536,1.348.009,0a.616.616,0,0,0,.337-.4l.24-.879a12.842,12.842,0,0,0,1.3-.63,6.633,6.633,0,0,0,.6-.391,5.6,5.6,0,0,0,1.695-1.975Z" transform="translate(-55.663 -56.372)" fill="#cc4e4e"/>
            </g>
          </g>
          <g id="Gruppe_431" data-name="Gruppe 431" transform="translate(0 2.951)">
            <path id="Pfad_3933" data-name="Pfad 3933" d="M53,68.806a.5.5,0,0,1-.232-.566l.343-1.257.85.494-.287,1.053A.459.459,0,0,1,53,68.806Z" transform="translate(-52.748 -66.983)" fill="#e25656"/>
          </g>
        </g>
        <g id="Gruppe_437" data-name="Gruppe 437" transform="translate(9.355 5.436)">
          <g id="Gruppe_435" data-name="Gruppe 435" transform="translate(0.36)">
            <g id="Gruppe_433" data-name="Gruppe 433">
              <path id="Pfad_3934" data-name="Pfad 3934" d="M62.411,56.867a5.441,5.441,0,0,1-1.646,1.916,6.56,6.56,0,0,1-.591.384,13.153,13.153,0,0,1-1.318.639l-.029.013-.85-.494.029-.013a13.149,13.149,0,0,0,1.318-.639,6.563,6.563,0,0,0,.591-.384,5.442,5.442,0,0,0,1.646-1.916Z" transform="translate(-57.976 -56.373)" fill="#fff"/>
            </g>
            <g id="Gruppe_434" data-name="Gruppe 434" transform="translate(0.315 0.494)">
              <path id="Pfad_3935" data-name="Pfad 3935" d="M63.455,58.506a5.437,5.437,0,0,1-1.647,1.916,6.506,6.506,0,0,1-.591.384,13.091,13.091,0,0,1-1.318.639l-.029.013-.536,1.348.009,0a.616.616,0,0,0,.337-.4l.24-.879a12.844,12.844,0,0,0,1.3-.63,6.632,6.632,0,0,0,.6-.391,5.6,5.6,0,0,0,1.695-1.975Z" transform="translate(-59.335 -58.506)" fill="#ccc"/>
            </g>
          </g>
          <g id="Gruppe_436" data-name="Gruppe 436" transform="translate(0 2.951)">
            <path id="Pfad_3936" data-name="Pfad 3936" d="M56.67,70.94a.5.5,0,0,1-.232-.566l.343-1.257.85.494-.287,1.053A.459.459,0,0,1,56.67,70.94Z" transform="translate(-56.421 -69.117)" fill="#dadada"/>
          </g>
        </g>
        <g id="Gruppe_442" data-name="Gruppe 442" transform="translate(10.206 5.931)">
          <g id="Gruppe_440" data-name="Gruppe 440" transform="translate(0.36)">
            <g id="Gruppe_438" data-name="Gruppe 438">
              <path id="Pfad_3937" data-name="Pfad 3937" d="M66.084,59a5.441,5.441,0,0,1-1.646,1.916,6.56,6.56,0,0,1-.591.384,13.152,13.152,0,0,1-1.318.639l-.029.013-.85-.494.029-.013A13.149,13.149,0,0,0,63,60.806a6.561,6.561,0,0,0,.591-.384,5.442,5.442,0,0,0,1.646-1.916Z" transform="translate(-61.649 -58.507)" fill="#f06260"/>
            </g>
            <g id="Gruppe_439" data-name="Gruppe 439" transform="translate(0.315 0.494)">
              <path id="Pfad_3938" data-name="Pfad 3938" d="M67.128,60.64a5.437,5.437,0,0,1-1.647,1.916,6.5,6.5,0,0,1-.591.384,13.09,13.09,0,0,1-1.318.639l-.029.013-.536,1.348.009,0a.616.616,0,0,0,.337-.4l.24-.879a12.844,12.844,0,0,0,1.3-.63,6.633,6.633,0,0,0,.6-.391,5.6,5.6,0,0,0,1.695-1.975Z" transform="translate(-63.007 -60.64)" fill="#cc4e4e"/>
            </g>
          </g>
          <g id="Gruppe_441" data-name="Gruppe 441" transform="translate(0 2.951)">
            <path id="Pfad_3939" data-name="Pfad 3939" d="M60.343,73.074a.5.5,0,0,1-.232-.566l.343-1.257.85.494L61.017,72.8A.459.459,0,0,1,60.343,73.074Z" transform="translate(-60.093 -71.251)" fill="#e25656"/>
          </g>
        </g>
        <g id="Gruppe_447" data-name="Gruppe 447" transform="translate(11.056 6.425)">
          <g id="Gruppe_445" data-name="Gruppe 445" transform="translate(0.36)">
            <g id="Gruppe_443" data-name="Gruppe 443">
              <path id="Pfad_3940" data-name="Pfad 3940" d="M69.756,61.135a5.441,5.441,0,0,1-1.646,1.916,6.561,6.561,0,0,1-.591.384,13.154,13.154,0,0,1-1.318.639l-.029.013-.85-.494.029-.013a13.148,13.148,0,0,0,1.318-.639,6.56,6.56,0,0,0,.591-.384,5.442,5.442,0,0,0,1.646-1.916Z" transform="translate(-65.321 -60.641)" fill="#fff"/>
            </g>
            <g id="Gruppe_444" data-name="Gruppe 444" transform="translate(0.315 0.494)">
              <path id="Pfad_3941" data-name="Pfad 3941" d="M70.8,62.774a5.437,5.437,0,0,1-1.647,1.916,6.506,6.506,0,0,1-.591.384,13.092,13.092,0,0,1-1.318.639l-.029.013-.536,1.348.009,0a.616.616,0,0,0,.337-.4l.24-.879a12.842,12.842,0,0,0,1.3-.63,6.632,6.632,0,0,0,.6-.391,5.6,5.6,0,0,0,1.695-1.975Z" transform="translate(-66.68 -62.774)" fill="#ccc"/>
            </g>
          </g>
          <g id="Gruppe_446" data-name="Gruppe 446" transform="translate(0 2.951)">
            <path id="Pfad_3942" data-name="Pfad 3942" d="M64.015,75.208a.5.5,0,0,1-.232-.566l.343-1.257.85.494-.287,1.053A.459.459,0,0,1,64.015,75.208Z" transform="translate(-63.765 -73.385)" fill="#dadada"/>
          </g>
        </g>
      </g>
      <g id="Gruppe_457" data-name="Gruppe 457" transform="translate(19.642 14.05)">
        <g id="Gruppe_452" data-name="Gruppe 452">
          <g id="Gruppe_449" data-name="Gruppe 449" transform="translate(0.083)">
            <path id="Pfad_3943" data-name="Pfad 3943" d="M86.367,63.942l.744.432a.059.059,0,0,0-.06.006l-.744-.432A.059.059,0,0,1,86.367,63.942Z" transform="translate(-86.307 -63.937)" fill="#4c525d"/>
          </g>
          <g id="Gruppe_450" data-name="Gruppe 450" transform="translate(0 0.012)">
            <path id="Pfad_3944" data-name="Pfad 3944" d="M86.716,64.617l-.744-.432a.059.059,0,0,1-.024-.054.183.183,0,0,1,.083-.144l.744.432a.183.183,0,0,0-.083.144A.059.059,0,0,0,86.716,64.617Z" transform="translate(-85.947 -63.986)" fill="#4c525d"/>
          </g>
          <g id="Gruppe_451" data-name="Gruppe 451" transform="translate(0.744 0.432)">
            <path id="Pfad_3945" data-name="Pfad 3945" d="M89.243,65.815c.046-.027.084-.006.084.048a.184.184,0,0,1-.084.145c-.046.027-.084.005-.084-.048A.183.183,0,0,1,89.243,65.815Z" transform="translate(-89.16 -65.804)" fill="#4c525d"/>
          </g>
        </g>
        <g id="Gruppe_456" data-name="Gruppe 456" transform="translate(0.002 0.806)">
          <g id="Gruppe_453" data-name="Gruppe 453" transform="translate(0.083)">
            <path id="Pfad_3946" data-name="Pfad 3946" d="M86.376,67.423l.744.432a.059.059,0,0,0-.06.006l-.744-.432A.059.059,0,0,1,86.376,67.423Z" transform="translate(-86.317 -67.418)" fill="#4c525d"/>
          </g>
          <g id="Gruppe_454" data-name="Gruppe 454" transform="translate(0 0.012)">
            <path id="Pfad_3947" data-name="Pfad 3947" d="M86.726,68.1l-.744-.432a.058.058,0,0,1-.024-.053.184.184,0,0,1,.083-.145l.744.432a.184.184,0,0,0-.083.145A.058.058,0,0,0,86.726,68.1Z" transform="translate(-85.957 -67.467)" fill="#4c525d"/>
          </g>
          <g id="Gruppe_455" data-name="Gruppe 455" transform="translate(0.744 0.432)">
            <path id="Pfad_3948" data-name="Pfad 3948" d="M89.253,69.3c.046-.027.084-.005.084.048a.184.184,0,0,1-.084.144c-.046.027-.084.005-.084-.048A.184.184,0,0,1,89.253,69.3Z" transform="translate(-89.17 -69.284)" fill="#4c525d"/>
          </g>
        </g>
      </g>
      <g id="Gruppe_460" data-name="Gruppe 460" transform="translate(20.191 14.013)">
        <g id="Gruppe_458" data-name="Gruppe 458" transform="translate(0.053)">
          <path id="Pfad_3949" data-name="Pfad 3949" d="M90.952,65.164l0,1.19a.119.119,0,0,1-.049.11l-.253.146A.117.117,0,0,0,90.7,66.5l0-1.19a.375.375,0,0,0-.169-.294l-1.861-1.074a.118.118,0,0,0-.12-.013l.253-.147a.12.12,0,0,1,.12.013l1.861,1.074A.375.375,0,0,1,90.952,65.164Z" transform="translate(-88.548 -63.773)" fill="#5f656f"/>
        </g>
        <g id="Gruppe_459" data-name="Gruppe 459" transform="translate(0 0.147)">
          <path id="Pfad_3950" data-name="Pfad 3950" d="M90.354,65.506a.372.372,0,0,1,.169.293l0,1.19c0,.107-.076.151-.17.1l-1.861-1.074a.373.373,0,0,1-.169-.293l0-1.19c0-.108.076-.151.17-.1Z" transform="translate(-88.319 -64.408)" fill="#4c525d"/>
          <path id="Pfad_3951" data-name="Pfad 3951" d="M88.93,66.338a.261.261,0,0,1-.111-.192l0-1.183,1.857,1.07a.257.257,0,0,1,.111.192l0,1.182Z" transform="translate(-88.703 -64.835)" fill="#fff"/>
        </g>
      </g>
      <g id="Gruppe_463" data-name="Gruppe 463" transform="translate(20.705 14.875)">
        <g id="Gruppe_461" data-name="Gruppe 461">
          <path id="Pfad_3952" data-name="Pfad 3952" d="M90.8,67.547a.551.551,0,0,1,.126.1.47.47,0,0,1,.084.125.325.325,0,0,1,.03.134.21.21,0,0,1-.023.1.193.193,0,0,1-.086.071l-.15.076.278.161v.14l-.489-.282v-.112l.25-.127a.134.134,0,0,0,.054-.044.1.1,0,0,0,.014-.054.143.143,0,0,0-.026-.084.225.225,0,0,0-.077-.068.166.166,0,0,0-.077-.026.073.073,0,0,0-.057.023l-.109-.144a.129.129,0,0,1,.105-.042A.338.338,0,0,1,90.8,67.547Z" transform="translate(-90.539 -67.495)" fill="#4079ad"/>
        </g>
        <g id="Gruppe_462" data-name="Gruppe 462" transform="translate(0.563 0.418)">
          <path id="Pfad_3953" data-name="Pfad 3953" d="M93.435,69.39l-.284.285.174.1v-.139l.142.082v.139l.105.061v.14L93.466,70v.156l-.146-.085v-.156l-.348-.2V69.6l.307-.3Z" transform="translate(-92.971 -69.3)" fill="#4079ad"/>
        </g>
      </g>
      <g id="Gruppe_464" data-name="Gruppe 464" transform="translate(8.384 0.536)">
        <path id="Pfad_3954" data-name="Pfad 3954" d="M37.336,9.379l1.16.669,5.373-3.124V5.583Z" transform="translate(-37.336 -5.583)" fill="#b7805a"/>
        <path id="Pfad_3955" data-name="Pfad 3955" d="M65.546,5.583V6.924l10.072,5.815,1.158-.672Z" transform="translate(-59.013 -5.583)" fill="#c68b63"/>
      </g>
      <g id="Gruppe_485" data-name="Gruppe 485" transform="translate(1.229 14.648)">
        <g id="Gruppe_475" data-name="Gruppe 475">
          <g id="Gruppe_474" data-name="Gruppe 474">
            <g id="Gruppe_465" data-name="Gruppe 465" transform="translate(0.145 1.36)">
              <path id="Pfad_3956" data-name="Pfad 3956" d="M7.937,72.563l-.2-.177-.67,2.532.2.177Z" transform="translate(-7.069 -72.386)" fill="#88cefc"/>
            </g>
            <g id="Gruppe_466" data-name="Gruppe 466" transform="translate(0.145 2.692)">
              <path id="Pfad_3957" data-name="Pfad 3957" d="M9.346,78.314l-.2-.177-2.079,1.2.2.177Z" transform="translate(-7.069 -78.137)" fill="#ebc5b2"/>
            </g>
            <g id="Gruppe_467" data-name="Gruppe 467" transform="translate(2.224 0.159)">
              <path id="Pfad_3958" data-name="Pfad 3958" d="M16.915,67.38l-.2-.177-.67,2.532.2.177Z" transform="translate(-16.046 -67.203)" fill="#ebc5b2"/>
            </g>
            <g id="Gruppe_468" data-name="Gruppe 468" transform="translate(2.94)">
              <path id="Pfad_3959" data-name="Pfad 3959" d="M19.422,66.7l-.2-.177c-.016-.014-.047-.011-.087.012l.2.177C19.376,66.689,19.406,66.687,19.422,66.7Z" transform="translate(-19.137 -66.515)" fill="#ebc5b2"/>
            </g>
            <g id="Gruppe_469" data-name="Gruppe 469" transform="translate(0.814 0.159)">
              <path id="Pfad_3960" data-name="Pfad 3960" d="M12.238,67.38l-.2-.177L9.96,68.4l.2.177Z" transform="translate(-9.96 -67.203)" fill="#88cefc"/>
            </g>
            <g id="Gruppe_470" data-name="Gruppe 470" transform="translate(0.199 0.177)">
              <path id="Pfad_3961" data-name="Pfad 3961" d="M7.4,71.31,9.5,70.1a.38.38,0,0,0,.159-.2l.675-2.554c.018-.067-.025-.089-.094-.048l-2.1,1.213a.376.376,0,0,0-.159.195L7.3,71.261C7.287,71.328,7.33,71.35,7.4,71.31Z" transform="translate(-7.301 -67.279)" fill="#5ba5fe"/>
            </g>
            <g id="Gruppe_471" data-name="Gruppe 471" transform="translate(0 1.428)">
              <path id="Pfad_3962" data-name="Pfad 3962" d="M6.455,75.3l.2.177c-.012-.011-.016-.031-.008-.06l.675-2.554-.2-.177-.675,2.554C6.44,75.266,6.443,75.287,6.455,75.3Z" transform="translate(-6.444 -72.684)" fill="#88cefc"/>
            </g>
            <g id="Gruppe_472" data-name="Gruppe 472" transform="translate(0.838 0.02)">
              <path id="Pfad_3963" data-name="Pfad 3963" d="M12.363,66.78l-.2-.177-2.1,1.213.2.177Z" transform="translate(-10.063 -66.603)" fill="#88cefc"/>
            </g>
            <g id="Gruppe_473" data-name="Gruppe 473" transform="translate(0.679 1.234)">
              <path id="Pfad_3964" data-name="Pfad 3964" d="M9.735,72.019l-.2-.177a.378.378,0,0,0-.159.195l.2.177A.377.377,0,0,1,9.735,72.019Z" transform="translate(-9.377 -71.842)" fill="#88cefc"/>
            </g>
          </g>
        </g>
        <g id="Gruppe_484" data-name="Gruppe 484" transform="translate(0.748 0)">
          <g id="Gruppe_483" data-name="Gruppe 483">
            <g id="Gruppe_476" data-name="Gruppe 476" transform="translate(2.224 0.196)">
              <path id="Pfad_3965" data-name="Pfad 3965" d="M19.477,67.416l-.2-.054.686,3.32.2.054Z" transform="translate(-19.279 -67.362)" fill="#ebc5b2"/>
            </g>
            <g id="Gruppe_477" data-name="Gruppe 477" transform="translate(0.145 1.397)">
              <path id="Pfad_3966" data-name="Pfad 3966" d="M10.5,72.6l-.2-.054.686,3.32.2.054Z" transform="translate(-10.301 -72.546)" fill="#88cefc"/>
            </g>
            <g id="Gruppe_478" data-name="Gruppe 478" transform="translate(0.831 3.516)">
              <path id="Pfad_3967" data-name="Pfad 3967" d="M15.542,81.753l-.2-.054-2.079,1.2.2.054Z" transform="translate(-13.264 -81.699)" fill="#ebc5b2"/>
            </g>
            <g id="Gruppe_479" data-name="Gruppe 479" transform="translate(0.343 0.25)">
              <path id="Pfad_3968" data-name="Pfad 3968" d="M11.157,68.795l.686,3.32,2.079-1.2-.686-3.32Z" transform="translate(-11.157 -67.594)" fill="#88cefc"/>
            </g>
            <g id="Gruppe_480" data-name="Gruppe 480" transform="translate(0.145 0.196)">
              <path id="Pfad_3969" data-name="Pfad 3969" d="M12.578,67.416l-.2-.054-2.079,1.2.2.054Z" transform="translate(-10.301 -67.362)" fill="#88cefc"/>
            </g>
            <g id="Gruppe_481" data-name="Gruppe 481" transform="translate(0.198 0.054)">
              <path id="Pfad_3970" data-name="Pfad 3970" d="M12.731,66.764c.07-.04.141,0,.16.086l.692,3.348a.229.229,0,0,1-.094.233l-2.1,1.213c-.07.04-.141,0-.16-.086l-.692-3.348a.229.229,0,0,1,.094-.233Zm-1.368,4.7,2.079-1.2-.686-3.32-2.079,1.2Z" transform="translate(-10.531 -66.748)" fill="#69b4ff"/>
            </g>
            <g id="Gruppe_482" data-name="Gruppe 482">
              <path id="Pfad_3971" data-name="Pfad 3971" d="M9.68,67.977l.692,3.349a.121.121,0,0,0,.08.1l.2.054a.121.121,0,0,1-.08-.1l-.692-3.348a.229.229,0,0,1,.094-.233l2.1-1.213a.1.1,0,0,1,.08-.013l-.2-.054a.1.1,0,0,0-.08.013l-2.1,1.213a.229.229,0,0,0-.094.233Z" transform="translate(-9.675 -66.516)" fill="#88cefc"/>
            </g>
          </g>
        </g>
      </g>
      <g id="Gruppe_509" data-name="Gruppe 509" transform="translate(17.611 20.492)">
        <g id="Gruppe_508" data-name="Gruppe 508">
          <g id="Gruppe_501" data-name="Gruppe 501" transform="translate(0.052 1.235)">
            <g id="Gruppe_489" data-name="Gruppe 489" transform="translate(0.037 0.109)">
              <g id="Gruppe_488" data-name="Gruppe 488">
                <g id="Gruppe_487" data-name="Gruppe 487">
                  <g id="Gruppe_486" data-name="Gruppe 486">
                    <path id="Pfad_3972" data-name="Pfad 3972" d="M78.433,97.813l-.151.692c0,.012,0,.024-.006.037a.148.148,0,0,1-.08.1.437.437,0,0,1-.4,0,.141.141,0,0,1-.083-.114h0l-.151-.715c.284-.351.574-.338.868,0Z" transform="translate(-77.565 -97.554)" fill="#c1c1c1"/>
                  </g>
                </g>
              </g>
            </g>
            <g id="Gruppe_493" data-name="Gruppe 493" transform="translate(0.013 0.109)">
              <g id="Gruppe_492" data-name="Gruppe 492">
                <g id="Gruppe_491" data-name="Gruppe 491">
                  <g id="Gruppe_490" data-name="Gruppe 490">
                    <path id="Pfad_3973" data-name="Pfad 3973" d="M77.461,97.827l.016.073a.092.092,0,0,1,.022.01.784.784,0,0,1,.129.1h.544a.1.1,0,0,1,.1-.073l.01,0,.01,0,.022-.011.049-.027.014-.065C78.066,97.47,77.761,97.457,77.461,97.827Z" transform="translate(-77.461 -97.554)" fill="#c1c1c1"/>
                  </g>
                </g>
              </g>
            </g>
            <g id="Gruppe_500" data-name="Gruppe 500">
              <g id="Gruppe_499" data-name="Gruppe 499">
                <g id="Gruppe_495" data-name="Gruppe 495" transform="translate(0.081 0.047)">
                  <g id="Gruppe_494" data-name="Gruppe 494">
                    <path id="Pfad_3974" data-name="Pfad 3974" d="M78.535,97.514v.137a.2.2,0,0,0-.115-.161.609.609,0,0,0-.552,0,.194.194,0,0,0-.113.159v-.137a.194.194,0,0,1,.113-.159.609.609,0,0,1,.552,0A.2.2,0,0,1,78.535,97.514Z" transform="translate(-77.755 -97.287)" fill="#ccc"/>
                  </g>
                </g>
                <g id="Gruppe_497" data-name="Gruppe 497" transform="translate(0 0.271)">
                  <g id="Gruppe_496" data-name="Gruppe 496">
                    <path id="Pfad_3975" data-name="Pfad 3975" d="M78.348,98.259V98.4a.234.234,0,0,1-.137.192.735.735,0,0,1-.666,0,.235.235,0,0,1-.139-.194v-.137a.235.235,0,0,0,.139.194.735.735,0,0,0,.666,0A.234.234,0,0,0,78.348,98.259Z" transform="translate(-77.406 -98.257)" fill="#ccc"/>
                  </g>
                </g>
                <g id="Gruppe_498" data-name="Gruppe 498" transform="translate(0)">
                  <path id="Pfad_3976" data-name="Pfad 3976" d="M78.211,97.165a.2.2,0,0,1,0,.386.735.735,0,0,1-.666,0,.2.2,0,0,1,0-.386A.735.735,0,0,1,78.211,97.165Zm-.607.353a.609.609,0,0,0,.552,0,.169.169,0,0,0,0-.32.609.609,0,0,0-.552,0,.169.169,0,0,0,0,.32" transform="translate(-77.408 -97.085)" fill="#ebebeb"/>
                </g>
              </g>
            </g>
          </g>
          <g id="Gruppe_507" data-name="Gruppe 507" transform="translate(0.405 1.099)">
            <g id="Gruppe_506" data-name="Gruppe 506">
              <g id="Gruppe_504" data-name="Gruppe 504" transform="translate(0 0.068)">
                <g id="Gruppe_503" data-name="Gruppe 503">
                  <g id="Gruppe_502" data-name="Gruppe 502">
                    <path id="Pfad_3977" data-name="Pfad 3977" d="M79.166,96.791v.416a.059.059,0,0,1-.034.048.184.184,0,0,1-.167,0,.059.059,0,0,1-.035-.049V96.79a.059.059,0,0,0,.035.049.184.184,0,0,0,.167,0A.059.059,0,0,0,79.166,96.791Z" transform="translate(-78.929 -96.79)" fill="#9e6a4d"/>
                  </g>
                </g>
              </g>
              <g id="Gruppe_505" data-name="Gruppe 505" transform="translate(0.001)">
                <path id="Pfad_3978" data-name="Pfad 3978" d="M79.132,96.516a.051.051,0,0,1,0,.1.184.184,0,0,1-.167,0,.051.051,0,0,1,0-.1A.184.184,0,0,1,79.132,96.516Z" transform="translate(-78.931 -96.496)" fill="#c66028"/>
              </g>
            </g>
          </g>
          <path id="Pfad_3979" data-name="Pfad 3979" d="M78.227,92.661a.523.523,0,0,1-1.043.06.48.48,0,0,1,0-.06c0-.289.234-.911.523-.911a.241.241,0,0,1,.129.041,1.271,1.271,0,0,1,.394.87Z" transform="translate(-77.18 -91.751)" fill="#9fc14c"/>
        </g>
        <path id="Pfad_3980" data-name="Pfad 3980" d="M78.238,92.8a.523.523,0,0,1-1.043.06,1.843,1.843,0,0,0,.217.154.5.5,0,0,0,.373.093.374.374,0,0,0,.248-.281.862.862,0,0,0-.018-.39,2.572,2.572,0,0,0-.171-.5A1.271,1.271,0,0,1,78.238,92.8Z" transform="translate(-77.192 -91.887)" fill="#8fb545"/>
      </g>
      <g id="Gruppe_533" data-name="Gruppe 533" transform="translate(13.343 18.137)">
        <g id="Gruppe_532" data-name="Gruppe 532">
          <g id="Gruppe_525" data-name="Gruppe 525" transform="translate(0.052 1.235)">
            <g id="Gruppe_513" data-name="Gruppe 513" transform="translate(0.037 0.109)">
              <g id="Gruppe_512" data-name="Gruppe 512">
                <g id="Gruppe_511" data-name="Gruppe 511">
                  <g id="Gruppe_510" data-name="Gruppe 510">
                    <path id="Pfad_3981" data-name="Pfad 3981" d="M60.005,87.644l-.151.692c0,.012,0,.024-.006.037a.148.148,0,0,1-.08.1.437.437,0,0,1-.4,0,.141.141,0,0,1-.083-.114h0l-.151-.715C59.421,87.293,59.711,87.306,60.005,87.644Z" transform="translate(-59.137 -87.386)" fill="#c1c1c1"/>
                  </g>
                </g>
              </g>
            </g>
            <g id="Gruppe_517" data-name="Gruppe 517" transform="translate(0.013 0.109)">
              <g id="Gruppe_516" data-name="Gruppe 516">
                <g id="Gruppe_515" data-name="Gruppe 515">
                  <g id="Gruppe_514" data-name="Gruppe 514">
                    <path id="Pfad_3982" data-name="Pfad 3982" d="M59.033,87.658l.016.073a.092.092,0,0,1,.022.01.783.783,0,0,1,.129.1h.544a.1.1,0,0,1,.1-.072l.01,0,.01,0,.022-.011.049-.027.014-.065C59.638,87.3,59.332,87.288,59.033,87.658Z" transform="translate(-59.033 -87.386)" fill="#c1c1c1"/>
                  </g>
                </g>
              </g>
            </g>
            <g id="Gruppe_524" data-name="Gruppe 524">
              <g id="Gruppe_523" data-name="Gruppe 523">
                <g id="Gruppe_519" data-name="Gruppe 519" transform="translate(0.081 0.047)">
                  <g id="Gruppe_518" data-name="Gruppe 518">
                    <path id="Pfad_3983" data-name="Pfad 3983" d="M60.107,87.346v.137a.2.2,0,0,0-.115-.161.609.609,0,0,0-.552,0,.194.194,0,0,0-.113.159v-.137a.194.194,0,0,1,.113-.159.609.609,0,0,1,.552,0A.2.2,0,0,1,60.107,87.346Z" transform="translate(-59.326 -87.119)" fill="#ccc"/>
                  </g>
                </g>
                <g id="Gruppe_521" data-name="Gruppe 521" transform="translate(0 0.271)">
                  <g id="Gruppe_520" data-name="Gruppe 520">
                    <path id="Pfad_3984" data-name="Pfad 3984" d="M59.92,88.091v.137a.234.234,0,0,1-.137.192.735.735,0,0,1-.666,0,.235.235,0,0,1-.139-.194v-.137a.236.236,0,0,0,.139.194.735.735,0,0,0,.666,0A.234.234,0,0,0,59.92,88.091Z" transform="translate(-58.978 -88.088)" fill="#ccc"/>
                  </g>
                </g>
                <g id="Gruppe_522" data-name="Gruppe 522" transform="translate(0)">
                  <path id="Pfad_3985" data-name="Pfad 3985" d="M59.782,87a.2.2,0,0,1,0,.386.735.735,0,0,1-.666,0,.2.2,0,0,1,0-.386A.735.735,0,0,1,59.782,87Zm-.607.353a.609.609,0,0,0,.552,0,.169.169,0,0,0,0-.32.609.609,0,0,0-.552,0,.169.169,0,0,0,0,.32" transform="translate(-58.98 -86.917)" fill="#ebebeb"/>
                </g>
              </g>
            </g>
          </g>
          <g id="Gruppe_531" data-name="Gruppe 531" transform="translate(0.405 1.099)">
            <g id="Gruppe_530" data-name="Gruppe 530">
              <g id="Gruppe_528" data-name="Gruppe 528" transform="translate(0 0.068)">
                <g id="Gruppe_527" data-name="Gruppe 527">
                  <g id="Gruppe_526" data-name="Gruppe 526">
                    <path id="Pfad_3986" data-name="Pfad 3986" d="M60.738,86.622v.416a.059.059,0,0,1-.034.048.184.184,0,0,1-.167,0,.059.059,0,0,1-.035-.049v-.416a.059.059,0,0,0,.035.049.184.184,0,0,0,.167,0A.059.059,0,0,0,60.738,86.622Z" transform="translate(-60.501 -86.621)" fill="#9e6a4d"/>
                  </g>
                </g>
              </g>
              <g id="Gruppe_529" data-name="Gruppe 529" transform="translate(0)">
                <path id="Pfad_3987" data-name="Pfad 3987" d="M60.7,86.348a.051.051,0,0,1,0,.1.184.184,0,0,1-.167,0,.051.051,0,0,1,0-.1A.184.184,0,0,1,60.7,86.348Z" transform="translate(-60.503 -86.328)" fill="#c66028"/>
              </g>
            </g>
          </g>
          <path id="Pfad_3988" data-name="Pfad 3988" d="M59.8,82.493a.523.523,0,0,1-1.043.06.478.478,0,0,1,0-.06c0-.289.234-.911.523-.911a.24.24,0,0,1,.129.041A1.27,1.27,0,0,1,59.8,82.493Z" transform="translate(-58.752 -81.582)" fill="#9fc14c"/>
        </g>
        <path id="Pfad_3989" data-name="Pfad 3989" d="M59.81,82.629a.523.523,0,0,1-1.043.06,1.842,1.842,0,0,0,.217.154.5.5,0,0,0,.373.093.374.374,0,0,0,.248-.281.862.862,0,0,0-.018-.39,2.573,2.573,0,0,0-.171-.5A1.27,1.27,0,0,1,59.81,82.629Z" transform="translate(-58.763 -81.718)" fill="#8fb545"/>
      </g>
      <g id="Gruppe_557" data-name="Gruppe 557" transform="translate(6.729 14.371)">
        <g id="Gruppe_556" data-name="Gruppe 556">
          <g id="Gruppe_549" data-name="Gruppe 549" transform="translate(0.052 1.235)">
            <g id="Gruppe_537" data-name="Gruppe 537" transform="translate(0.037 0.109)">
              <g id="Gruppe_536" data-name="Gruppe 536">
                <g id="Gruppe_535" data-name="Gruppe 535">
                  <g id="Gruppe_534" data-name="Gruppe 534">
                    <path id="Pfad_3990" data-name="Pfad 3990" d="M31.446,71.381l-.151.692c0,.012,0,.024-.006.037a.148.148,0,0,1-.08.1.437.437,0,0,1-.4,0,.141.141,0,0,1-.083-.114h0l-.151-.715c.284-.351.574-.338.868,0Z" transform="translate(-30.578 -71.123)" fill="#c1c1c1"/>
                  </g>
                </g>
              </g>
            </g>
            <g id="Gruppe_541" data-name="Gruppe 541" transform="translate(0.013 0.109)">
              <g id="Gruppe_540" data-name="Gruppe 540">
                <g id="Gruppe_539" data-name="Gruppe 539">
                  <g id="Gruppe_538" data-name="Gruppe 538">
                    <path id="Pfad_3991" data-name="Pfad 3991" d="M30.474,71.4l.016.073a.092.092,0,0,1,.022.01.783.783,0,0,1,.129.1h.544a.1.1,0,0,1,.1-.072l.01,0,.01,0,.022-.011.049-.027.014-.065c-.311-.357-.617-.37-.917,0Z" transform="translate(-30.474 -71.123)" fill="#c1c1c1"/>
                  </g>
                </g>
              </g>
            </g>
            <g id="Gruppe_548" data-name="Gruppe 548">
              <g id="Gruppe_547" data-name="Gruppe 547">
                <g id="Gruppe_543" data-name="Gruppe 543" transform="translate(0.081 0.047)">
                  <g id="Gruppe_542" data-name="Gruppe 542">
                    <path id="Pfad_3992" data-name="Pfad 3992" d="M31.548,71.083v.137a.2.2,0,0,0-.115-.161.609.609,0,0,0-.552,0,.194.194,0,0,0-.113.159V71.08a.194.194,0,0,1,.113-.159.609.609,0,0,1,.552,0A.2.2,0,0,1,31.548,71.083Z" transform="translate(-30.767 -70.856)" fill="#ccc"/>
                  </g>
                </g>
                <g id="Gruppe_545" data-name="Gruppe 545" transform="translate(0 0.271)">
                  <g id="Gruppe_544" data-name="Gruppe 544">
                    <path id="Pfad_3993" data-name="Pfad 3993" d="M31.361,71.828v.137a.234.234,0,0,1-.137.192.735.735,0,0,1-.666,0,.235.235,0,0,1-.139-.194v-.137a.236.236,0,0,0,.139.194.735.735,0,0,0,.666,0A.234.234,0,0,0,31.361,71.828Z" transform="translate(-30.419 -71.825)" fill="#ccc"/>
                  </g>
                </g>
                <g id="Gruppe_546" data-name="Gruppe 546" transform="translate(0)">
                  <path id="Pfad_3994" data-name="Pfad 3994" d="M31.223,70.733a.2.2,0,0,1,0,.386.735.735,0,0,1-.666,0,.2.2,0,0,1,0-.386A.735.735,0,0,1,31.223,70.733Zm-.607.353a.609.609,0,0,0,.552,0,.169.169,0,0,0,0-.32.609.609,0,0,0-.552,0,.169.169,0,0,0,0,.32" transform="translate(-30.421 -70.654)" fill="#ebebeb"/>
                </g>
              </g>
            </g>
          </g>
          <g id="Gruppe_555" data-name="Gruppe 555" transform="translate(0.405 1.099)">
            <g id="Gruppe_554" data-name="Gruppe 554">
              <g id="Gruppe_552" data-name="Gruppe 552" transform="translate(0 0.068)">
                <g id="Gruppe_551" data-name="Gruppe 551">
                  <g id="Gruppe_550" data-name="Gruppe 550">
                    <path id="Pfad_3995" data-name="Pfad 3995" d="M32.178,70.359v.416a.059.059,0,0,1-.034.048.184.184,0,0,1-.167,0,.059.059,0,0,1-.035-.049v-.416a.059.059,0,0,0,.035.049.184.184,0,0,0,.167,0A.058.058,0,0,0,32.178,70.359Z" transform="translate(-31.942 -70.358)" fill="#9e6a4d"/>
                  </g>
                </g>
              </g>
              <g id="Gruppe_553" data-name="Gruppe 553" transform="translate(0.001)">
                <path id="Pfad_3996" data-name="Pfad 3996" d="M32.145,70.085a.051.051,0,0,1,0,.1.184.184,0,0,1-.167,0,.051.051,0,0,1,0-.1A.184.184,0,0,1,32.145,70.085Z" transform="translate(-31.944 -70.065)" fill="#c66028"/>
              </g>
            </g>
          </g>
          <path id="Pfad_3997" data-name="Pfad 3997" d="M31.239,66.23a.523.523,0,0,1-1.043.06.478.478,0,0,1,0-.06c0-.289.234-.911.523-.911a.24.24,0,0,1,.129.041A1.27,1.27,0,0,1,31.239,66.23Z" transform="translate(-30.193 -65.319)" fill="#9fc14c"/>
        </g>
        <path id="Pfad_3998" data-name="Pfad 3998" d="M31.251,66.366a.523.523,0,0,1-1.043.06,1.842,1.842,0,0,0,.217.154.5.5,0,0,0,.373.093.374.374,0,0,0,.248-.281.862.862,0,0,0-.018-.39,2.572,2.572,0,0,0-.171-.5A1.27,1.27,0,0,1,31.251,66.366Z" transform="translate(-30.204 -65.455)" fill="#8fb545"/>
      </g>
    </g>
    <g id="Gruppe_574" data-name="Gruppe 574" transform="translate(7.818 1.146)">
      <g id="Gruppe_572" data-name="Gruppe 572" transform="translate(0.165)">
        <g id="Gruppe_571" data-name="Gruppe 571">
          <g id="Gruppe_559" data-name="Gruppe 559" transform="translate(0.07 2.936)">
            <path id="Pfad_3999" data-name="Pfad 3999" d="M35.907,21.164l.468-.272a.683.683,0,0,0,.31.536l-.468.272A.683.683,0,0,1,35.907,21.164Z" transform="translate(-35.907 -20.892)" fill="#cc4e4e"/>
          </g>
          <g id="Gruppe_560" data-name="Gruppe 560" transform="translate(0.07 0.523)">
            <path id="Pfad_4000" data-name="Pfad 4000" d="M35.914,10.747l.468-.272-.007,2.412-.468.272Z" transform="translate(-35.907 -10.475)" fill="#cc4e4e"/>
          </g>
          <g id="Gruppe_561" data-name="Gruppe 561" transform="translate(0.077 0.324)">
            <path id="Pfad_4001" data-name="Pfad 4001" d="M36.028,9.888l.468-.272a.217.217,0,0,0-.091.2l-.468.272A.217.217,0,0,1,36.028,9.888Z" transform="translate(-35.937 -9.616)" fill="#cc4e4e"/>
          </g>
          <g id="Gruppe_562" data-name="Gruppe 562" transform="translate(0.168 0.303)">
            <path id="Pfad_4002" data-name="Pfad 4002" d="M36.329,9.818l.468-.272a.219.219,0,0,1,.221.021l-.468.272A.219.219,0,0,0,36.329,9.818Z" transform="translate(-36.329 -9.525)" fill="#e25656"/>
          </g>
          <g id="Gruppe_563" data-name="Gruppe 563" transform="translate(0.379 3.472)">
            <path id="Pfad_4003" data-name="Pfad 4003" d="M37.244,23.479l.468-.272,10.082,5.821-.468.272Z" transform="translate(-37.244 -23.207)" fill="#cc4e4e"/>
          </g>
          <g id="Gruppe_564" data-name="Gruppe 564" transform="translate(10.461 9.293)">
            <path id="Pfad_4004" data-name="Pfad 4004" d="M81.466,48.363,81,48.635a.219.219,0,0,1-.221-.021l.468-.272A.219.219,0,0,0,81.466,48.363Z" transform="translate(-80.778 -48.341)" fill="#cc4e4e"/>
          </g>
          <g id="Gruppe_565" data-name="Gruppe 565" transform="translate(10.773 6.703)">
            <path id="Pfad_4005" data-name="Pfad 4005" d="M82.13,37.43l.468-.272-.007,2.412-.468.272Z" transform="translate(-82.123 -37.158)" fill="#e25656"/>
          </g>
          <g id="Gruppe_566" data-name="Gruppe 566" transform="translate(10.682 9.115)">
            <path id="Pfad_4006" data-name="Pfad 4006" d="M82.2,47.773l-.468.272a.217.217,0,0,0,.091-.2l.468-.272A.217.217,0,0,1,82.2,47.773Z" transform="translate(-81.731 -47.574)" fill="#e25656"/>
          </g>
          <g id="Gruppe_567" data-name="Gruppe 567" transform="translate(10.47 6.166)">
            <path id="Pfad_4007" data-name="Pfad 4007" d="M80.816,35.115l.468-.272a.683.683,0,0,1,.31.536l-.468.272A.683.683,0,0,0,80.816,35.115Z" transform="translate(-80.816 -34.843)" fill="#e25656"/>
          </g>
          <g id="Gruppe_568" data-name="Gruppe 568" transform="translate(0.07 0.575)">
            <path id="Pfad_4008" data-name="Pfad 4008" d="M46.308,16.563a.683.683,0,0,1,.309.536l-.007,2.412c0,.2-.14.277-.312.178L36.217,13.868a.683.683,0,0,1-.31-.536l.007-2.412c0-.2.14-.277.312-.178Z" transform="translate(-35.907 -10.699)" fill="#fff"/>
          </g>
          <g id="Gruppe_569" data-name="Gruppe 569" transform="translate(0.388 0.346)">
            <path id="Pfad_4009" data-name="Pfad 4009" d="M37.282,9.98l.468-.272,10.082,5.821-.468.272Z" transform="translate(-37.282 -9.708)" fill="#e25656"/>
          </g>
          <g id="Gruppe_570" data-name="Gruppe 570">
            <path id="Pfad_4010" data-name="Pfad 4010" d="M47.089,15.055l-.007,2.412a.384.384,0,0,1-.159.35l-.468.272a.384.384,0,0,0,.159-.35l.007-2.412a1.2,1.2,0,0,0-.544-.943L35.994,8.563a.383.383,0,0,0-.388-.038l.468-.272a.383.383,0,0,1,.388.038l10.082,5.821A1.2,1.2,0,0,1,47.089,15.055Z" transform="translate(-35.605 -8.216)" fill="#cc4e4e"/>
          </g>
        </g>
      </g>
      <g id="Gruppe_573" data-name="Gruppe 573" transform="translate(0 0.272)">
        <path id="Pfad_4011" data-name="Pfad 4011" d="M45.528,15.288a1.2,1.2,0,0,1,.545.943l-.007,2.412c0,.346-.247.486-.549.311L35.436,13.134a1.2,1.2,0,0,1-.544-.942L34.9,9.779c0-.346.246-.486.548-.312Zm.3,3.219.007-2.412a.683.683,0,0,0-.309-.536L35.445,9.737c-.172-.1-.311-.019-.312.178l-.007,2.412a.683.683,0,0,0,.31.536l10.082,5.821c.172.1.311.019.311-.178" transform="translate(-34.891 -9.392)" fill="#f06260"/>
      </g>
    </g>
    <g id="Gruppe_585" data-name="Gruppe 585" transform="translate(8.645 2.932)">
      <g id="Gruppe_575" data-name="Gruppe 575">
        <path id="Pfad_4012" data-name="Pfad 4012" d="M39.523,16.538v1.08l-.2-.117v-.648l-.277.374-.1-.057-.273-.677,0,.633-.2-.118,0-1.079.18.1.349.873.348-.47Z" transform="translate(-38.464 -15.929)" fill="#4c525d"/>
      </g>
      <g id="Gruppe_576" data-name="Gruppe 576" transform="translate(1.281 0.74)">
        <path id="Pfad_4013" data-name="Pfad 4013" d="M44.216,19.247l0,1.079L44,20.2l0-1.079Z" transform="translate(-43.995 -19.122)" fill="#4c525d"/>
      </g>
      <g id="Gruppe_577" data-name="Gruppe 577" transform="translate(1.72 0.993)">
        <path id="Pfad_4014" data-name="Pfad 4014" d="M46.756,20.714l0,1.079-.178-.1-.467-.926,0,.655-.214-.124,0-1.079.18.1.465.924,0-.655Z" transform="translate(-45.892 -20.218)" fill="#4c525d"/>
      </g>
      <g id="Gruppe_578" data-name="Gruppe 578" transform="translate(2.803 1.618)">
        <path id="Pfad_4015" data-name="Pfad 4015" d="M50.788,23.042l0,1.079L50.568,24l0-1.079Z" transform="translate(-50.568 -22.917)" fill="#4c525d"/>
      </g>
      <g id="Gruppe_579" data-name="Gruppe 579" transform="translate(3.622 2.091)">
        <path id="Pfad_4016" data-name="Pfad 4016" d="M55.164,25.569v1.081l-.2-.118v-.648l-.278.373-.1-.056-.273-.677,0,.633-.2-.118,0-1.079.18.1.349.873.348-.47Z" transform="translate(-54.106 -24.96)" fill="#4c525d"/>
      </g>
      <g id="Gruppe_580" data-name="Gruppe 580" transform="translate(4.779 3)">
        <path id="Pfad_4017" data-name="Pfad 4017" d="M59.735,29.009l.416,1.321-.227-.131-.083-.279-.435-.251-.084.183-.223-.129.421-.838Zm-.259.51.3.172-.148-.5Z" transform="translate(-59.099 -28.885)" fill="#4c525d"/>
      </g>
      <g id="Gruppe_581" data-name="Gruppe 581" transform="translate(5.93 3.424)">
        <path id="Pfad_4018" data-name="Pfad 4018" d="M64.691,31.8l.209.468-.233-.135-.18-.4-.01-.006-.189-.109v.3l-.217-.125,0-1.079.406.235a.887.887,0,0,1,.216.173.753.753,0,0,1,.141.217.612.612,0,0,1,.049.236.268.268,0,0,1-.051.178.161.161,0,0,1-.143.052Zm-.077-.247c.033-.014.05-.051.051-.11a.307.307,0,0,0-.05-.169.432.432,0,0,0-.149-.134l-.177-.1v.377l.177.1a.19.19,0,0,0,.149.036" transform="translate(-64.07 -30.712)" fill="#4c525d"/>
      </g>
      <g id="Gruppe_582" data-name="Gruppe 582" transform="translate(6.914 3.992)">
        <path id="Pfad_4019" data-name="Pfad 4019" d="M69.2,33.67l-.389.257.41.836-.253-.146-.3-.6-.126.079v.273l-.216-.125,0-1.079.216.125v.5l.418-.263Z" transform="translate(-68.32 -33.166)" fill="#4c525d"/>
      </g>
      <g id="Gruppe_583" data-name="Gruppe 583" transform="translate(7.907 4.565)">
        <path id="Pfad_4020" data-name="Pfad 4020" d="M73.317,36.049v.2l-.493-.284V36.2l.435.251v.194l-.435-.251v.25l.511.295v.2l-.727-.42,0-1.079Z" transform="translate(-72.605 -35.64)" fill="#4c525d"/>
      </g>
      <g id="Gruppe_584" data-name="Gruppe 584" transform="translate(8.703 5.023)">
        <path id="Pfad_4021" data-name="Pfad 4021" d="M76.863,38.092v.2l-.3-.174,0,.876-.217-.125,0-.876-.3-.173v-.2Z" transform="translate(-76.045 -37.62)" fill="#4c525d"/>
      </g>
    </g>
  </g>
</svg>
