<?xml version="1.0" encoding="iso-8859-1"?>
<!-- Generator: Adobe Illustrator 19.0.0, SVG Export Plug-In . SVG Version: 6.00 Build 0)  -->
<svg version="1.1" id="Capa_1"
  xmlns="http://www.w3.org/2000/svg"
  xmlns:xlink="http://www.w3.org/1999/xlink" x="0px" y="0px"
	viewBox="0 0 512 512" style="enable-background:new 0 0 512 512;" xml:space="preserve">
  <rect x="39.565" y="183.85" style="fill:#FFEDB1;" width="432.87" height="272.55"/>
  <path style="fill:#FFE17D;" d="M39.565,248.479c9.376,3.507,19.477,5.517,30.06,5.517c23.712,0,46.104-9.903,62.125-26.508
	c16.022,16.605,38.413,26.508,62.125,26.508s46.104-9.903,62.125-26.508c16.022,16.605,38.413,26.508,62.125,26.508
	s46.104-9.903,62.125-26.508c16.022,16.605,38.413,26.508,62.125,26.508c10.584,0,20.684-2.01,30.06-5.517v-64.624H39.565V248.479z"
	/>
  <path style="fill:#DC4655;" d="M504.5,167.823c0,34.311-27.814,62.125-62.125,62.125c-24.839,0-46.273-14.577-56.214-35.643
	c-2.423-5.135-9.398-5.135-11.821,0c-9.941,21.066-31.376,35.643-56.214,35.643s-46.273-14.577-56.214-35.643
	c-2.423-5.135-9.398-5.135-11.821,0c-9.941,21.066-31.376,35.643-56.214,35.643s-46.273-14.577-56.214-35.643
	c-2.423-5.135-9.398-5.135-11.821,0c-9.941,21.066-31.376,35.643-56.214,35.643c-34.311,0-62.125-27.814-62.125-62.125
	l59.51-104.148c2.854-4.995,8.167-8.078,13.92-8.078h350.134c5.753,0,11.065,3.083,13.92,8.078L504.5,167.823z"/>
  <path style="fill:#E6646E;" d="M431.067,55.597H80.933c-5.753,0-11.065,3.083-13.92,8.078L7.5,167.823h497L444.987,63.675
	C442.132,58.68,436.82,55.597,431.067,55.597z"/>
</svg>
  