<svg xmlns="http://www.w3.org/2000/svg" width="80.566" height="81.36" viewBox="0 0 80.566 81.36">
  <path id="group_2_" data-name="group (2)" d="M70.574,56.368a12.43,12.43,0,0,0-7.941,2.857l-3.263-3.3a22.253,22.253,0,0,0,5.7-13.735h3.225a7.3,7.3,0,1,0,0-2.384H65.069a22.272,22.272,0,0,0-.608-4.147,1.192,1.192,0,1,0-2.315.569A19.981,19.981,0,0,1,56.468,55.5c-.507-4.675-4.531-5.755-7.522-6.557l-.6-.161c-.233-.063-.424-.378-.571-.706,2.972-2.037,5.181-5.508,5.181-8.54V36.784A11.553,11.553,0,0,0,49.8,28.4a10.055,10.055,0,0,0-7-2.943h-.041a10.3,10.3,0,0,0-4.2.974,1.192,1.192,0,1,0,1.021,2.154,7.9,7.9,0,0,1,3.2-.744c3.428.066,7.088,2.426,7.7,7.432a3.894,3.894,0,0,1-1.126-.891,3.222,3.222,0,0,0-3.5-1.14c-.466.12-.861.226-1.2.318a8.5,8.5,0,0,1-1.877.4,8.5,8.5,0,0,1-1.877-.4c-.343-.092-.738-.2-1.2-.318a3.22,3.22,0,0,0-3.5,1.14,3.89,3.89,0,0,1-1.128.892,9.205,9.205,0,0,1,1.282-3.809,1.192,1.192,0,0,0-2.024-1.26,12.248,12.248,0,0,0-1.73,6.579V39.53c0,3.032,2.209,6.5,5.18,8.54-.148.328-.34.643-.576.707l-.593.16c-2.991.8-7.016,1.882-7.522,6.557A19.939,19.939,0,1,1,59.987,30.916L60,30.93c.063.1.122.211.182.318l.054.1a1.192,1.192,0,1,0,2.081-1.162l-.051-.091c-.073-.131-.147-.263-.223-.39a22.388,22.388,0,0,0-2.662-3.63L62.7,22.715a12.453,12.453,0,0,0,15.142-.6,1.2,1.2,0,0,0,.19-.165,12.492,12.492,0,1,0-17.145-.789L57.69,24.387a22.192,22.192,0,0,0-13.717-5.682V15.476a7.3,7.3,0,1,0-2.384,0V18.7a22.227,22.227,0,0,0-13.717,5.7l-3.215-3.217a12.49,12.49,0,1,0-17.124.767,1.2,1.2,0,0,0,.19.165,12.453,12.453,0,0,0,15.115.621l3.349,3.35a22.247,22.247,0,0,0-5.693,13.725H17.269a7.3,7.3,0,1,0,0,2.384h3.224A22.252,22.252,0,0,0,26.188,55.92l-3.255,3.254a12.514,12.514,0,1,0,1.685,1.686l3.255-3.253q.429.386.877.751a6.936,6.936,0,0,0,.9.692A22.185,22.185,0,0,0,41.59,63.3v3.227a7.3,7.3,0,1,0,2.384,0V63.3a22.185,22.185,0,0,0,11.94-4.254,1.2,1.2,0,0,0,.224-.164q.8-.6,1.547-1.272l3.263,3.3A12.475,12.475,0,0,0,62.4,78.3a1.2,1.2,0,0,0,.232.2,12.464,12.464,0,0,0,15.886,0,1.2,1.2,0,0,0,.232-.2,12.489,12.489,0,0,0-8.174-21.933Zm4.919-20.279A4.915,4.915,0,1,1,70.579,41,4.919,4.919,0,0,1,75.493,36.089Zm-5.619-13.48a10.051,10.051,0,0,1-6.067-2.03,6.128,6.128,0,0,1,2.993-4.7,5.946,5.946,0,0,0,6.149,0,6.128,6.128,0,0,1,2.993,4.7,10.051,10.051,0,0,1-6.067,2.03ZM66.3,10.773a3.577,3.577,0,1,1,3.577,3.579A3.582,3.582,0,0,1,66.3,10.773ZM59.767,12.5a10.107,10.107,0,1,1,18.184,6.072A8.541,8.541,0,0,0,74.745,14.2,5.96,5.96,0,1,0,65,14.2,8.541,8.541,0,0,0,61.8,18.568a10.063,10.063,0,0,1-2.03-6.072Zm-21.9-4.221a4.914,4.914,0,1,1,4.914,4.917A4.919,4.919,0,0,1,37.868,8.275ZM15.69,22.609a10.051,10.051,0,0,1-6.067-2.03,6.128,6.128,0,0,1,2.993-4.7,5.946,5.946,0,0,0,6.149,0,6.128,6.128,0,0,1,2.993,4.7A10.051,10.051,0,0,1,15.69,22.609ZM12.113,10.773a3.577,3.577,0,1,1,3.577,3.579,3.582,3.582,0,0,1-3.577-3.579ZM20.56,14.2a5.96,5.96,0,1,0-9.741,0,8.54,8.54,0,0,0-3.207,4.365,10.107,10.107,0,1,1,16.154,0A8.54,8.54,0,0,0,20.56,14.2ZM10.071,45.918A4.915,4.915,0,1,1,14.985,41a4.921,4.921,0,0,1-4.914,4.917ZM14.99,78.924a10.051,10.051,0,0,1-6.067-2.03,6.124,6.124,0,0,1,2.991-4.7,5.946,5.946,0,0,0,6.15,0,6.126,6.126,0,0,1,2.993,4.7A10.051,10.051,0,0,1,14.99,78.924ZM11.413,67.088a3.577,3.577,0,1,1,3.577,3.579A3.582,3.582,0,0,1,11.413,67.088Zm11.654,7.8a8.538,8.538,0,0,0-3.205-4.366,5.96,5.96,0,1,0-9.745,0,8.535,8.535,0,0,0-3.2,4.368,10.107,10.107,0,1,1,16.155,0ZM34.99,39.531V37.808a5.593,5.593,0,0,0,2.918-1.758c.56-.572.632-.645,1.2-.5.457.118.846.222,1.183.312a9.64,9.64,0,0,0,2.493.478,9.633,9.633,0,0,0,2.493-.478c.337-.09.725-.194,1.182-.312.565-.145.638-.072,1.2.5a5.593,5.593,0,0,0,2.918,1.758v1.723c0,2.785-2.839,6.374-5.959,7.53a4.622,4.622,0,0,1-3.667,0C37.829,45.9,34.99,42.316,34.99,39.531ZM46.776,50.612,43.4,52.593l-.047.029c-.552.359-.584.359-1.136,0l-.047-.029-3.38-1.982a3.836,3.836,0,0,0,1.1-1.408c.076.031.152.062.229.09a6.963,6.963,0,0,0,5.329,0c.078-.029.154-.061.231-.091a3.837,3.837,0,0,0,1.1,1.409Zm.92,23.116a4.914,4.914,0,1,1-4.914-4.912A4.921,4.921,0,0,1,47.7,73.728ZM54.138,57.39a19.88,19.88,0,0,1-22.712,0v-.876c0-2.989,1.634-4.024,4.4-4.874l5.111,3a2.976,2.976,0,0,0,3.686,0l5.111-3c2.768.85,4.4,1.885,4.4,4.874ZM70.574,78.977a10.051,10.051,0,0,1-6.067-2.03,6.129,6.129,0,0,1,2.993-4.7,5.947,5.947,0,0,0,6.15,0,6.128,6.128,0,0,1,2.991,4.7A10.051,10.051,0,0,1,70.574,78.977ZM67,67.141a3.577,3.577,0,1,1,3.577,3.579A3.582,3.582,0,0,1,67,67.141Zm11.654,7.8a8.537,8.537,0,0,0-3.2-4.368,5.96,5.96,0,1,0-9.745,0,8.541,8.541,0,0,0-3.2,4.367,10.107,10.107,0,1,1,16.153,0Z" transform="translate(-2.499)" fill="#193f43"/>
</svg>
